<svg width="30" height="30" viewBox="0 0 30 30" fill="none" xmlns="http://www.w3.org/2000/svg">
<path d="M13.2253 24.4256C13.2253 24.3215 13.2253 24.2175 13.2253 24.1135C13.2253 21.8446 13.223 19.5758 13.2253 17.3058C13.2253 16.4116 13.695 15.7464 14.4809 15.5056C15.5538 15.1772 16.69 15.9475 16.7356 17.0673C16.7696 17.9136 16.7474 18.761 16.7497 19.6085C16.7497 19.7137 16.7497 19.8189 16.7497 19.8598C17.1737 19.9031 17.5755 19.8937 17.9491 19.9931C18.4867 20.1357 18.5699 20.1696 19.0981 19.9814C19.9063 19.6938 20.7567 19.9907 21.2099 20.7213C21.2509 20.7868 21.2884 20.8534 21.3353 20.9329C21.3938 20.9235 21.4512 20.92 21.5051 20.9048C22.6963 20.5553 23.7797 21.3315 23.8254 22.5682C23.8289 22.6558 23.8266 22.7435 23.8266 22.8312C23.8266 24.906 23.8266 26.9796 23.8266 29.0544C23.8266 29.0837 23.8266 29.1129 23.8266 29.1421C23.8242 29.6377 23.604 29.9253 23.2304 29.9183C22.865 29.9124 22.6541 29.6342 22.6541 29.155C22.6541 27.0416 22.6541 24.9282 22.6541 22.8148C22.6541 22.6979 22.6553 22.5799 22.633 22.4665C22.5733 22.1649 22.3121 21.9615 22.0287 21.9802C21.7358 22.0001 21.4957 22.221 21.4864 22.5308C21.4688 23.0954 21.4782 23.6599 21.4735 24.2245C21.4735 24.3402 21.4676 24.4583 21.4454 24.5717C21.3845 24.8768 21.1279 25.0813 20.848 25.0603C20.554 25.0381 20.3373 24.8172 20.3081 24.5051C20.2987 24.408 20.301 24.311 20.301 24.2128C20.301 23.4238 20.301 22.6348 20.301 21.8458C20.301 21.328 20.0808 21.0369 19.699 21.0404C19.3171 21.0451 19.111 21.328 19.1098 21.8563C19.1087 22.6068 19.1098 23.356 19.1098 24.1065C19.1098 24.1743 19.1098 24.2432 19.1098 24.311C19.104 24.7891 18.8849 25.0673 18.5207 25.0626C18.1552 25.058 17.9397 24.7821 17.9374 24.3005C17.9339 23.4916 17.9374 22.6839 17.935 21.875C17.935 21.7488 17.9327 21.6202 17.9093 21.4975C17.8612 21.2438 17.627 21.0451 17.3693 21.0451C17.1011 21.0451 16.8949 21.169 16.8059 21.4273C16.7626 21.5524 16.7532 21.695 16.7532 21.8294C16.7485 22.6956 16.7579 23.5629 16.7474 24.4291C16.7415 24.8931 16.3503 25.1865 15.9649 25.0065C15.8232 24.9411 15.7049 24.7821 15.6288 24.6383C15.5702 24.5273 15.5796 24.373 15.5796 24.2386C15.5773 21.9791 15.5784 19.7196 15.5773 17.4601C15.5773 17.3525 15.5808 17.245 15.5691 17.1386C15.5339 16.8242 15.2797 16.5951 14.9811 16.5986C14.6918 16.6021 14.4505 16.8195 14.4083 17.1246C14.3943 17.2298 14.3989 17.3385 14.3989 17.4449C14.3989 20.4151 14.3989 23.3852 14.3989 26.3554C14.3989 26.4525 14.4048 26.5506 14.3931 26.6477C14.3626 26.913 14.2326 27.1082 13.9667 27.1807C13.702 27.2532 13.4877 27.1608 13.3261 26.9457C13.2675 26.8674 13.2195 26.7833 13.1691 26.7003C12.7674 26.0445 12.3808 25.3794 11.9568 24.7377C11.8385 24.5588 11.6324 24.3706 11.4344 24.325C10.9109 24.2035 10.5372 24.7307 10.7656 25.2508C10.9929 25.7675 11.2494 26.2701 11.4953 26.7786C11.8385 27.4881 12.1841 28.1965 12.5237 28.9072C12.5776 29.0205 12.6291 29.1409 12.6479 29.2625C12.6912 29.5407 12.5378 29.7862 12.2719 29.882C12.0084 29.9767 11.7928 29.8902 11.6218 29.6833C11.5668 29.6167 11.527 29.536 11.4895 29.4577C10.9038 28.2491 10.3147 27.0439 9.73726 25.8318C9.18559 24.671 9.74194 23.4414 10.9472 23.1748C11.6664 23.0159 12.2789 23.238 12.7463 23.8119C12.9044 24.0071 13.0309 24.228 13.1714 24.4373C13.189 24.4326 13.2078 24.4291 13.2253 24.4244V24.4256Z" fill="white"/>
<path d="M24.0328 8.10882C23.761 8.03986 23.4799 7.99543 23.2222 7.8914C23.0325 7.81425 22.9306 7.85049 22.7971 7.98608C21.7406 9.05096 20.6759 10.1088 19.6135 11.169C19.2247 11.5571 18.9084 11.6109 18.6261 11.3408C18.338 11.0638 18.3907 10.7318 18.7878 10.3356C19.8501 9.27539 20.909 8.21286 21.9772 7.1585C22.1166 7.02057 22.1353 6.91771 22.0615 6.73302C21.7148 5.85985 21.8846 5.06499 22.5218 4.38819C23.1075 3.76517 24.0691 3.58632 24.8714 3.91011C25.6608 4.22922 26.2102 5.03694 26.2207 5.89491C26.2348 7.08019 25.2544 8.05739 24.0316 8.10882H24.0328ZM24.0585 6.8955C24.5997 6.89433 25.0471 6.45131 25.0506 5.91244C25.0541 5.37942 24.6043 4.92355 24.0667 4.91537C23.5209 4.90719 23.0606 5.3689 23.0665 5.91946C23.0723 6.46417 23.5127 6.89667 24.0585 6.8955Z" fill="#FF4F8E"/>
<path d="M14.9636 11.3245C17.2746 11.3175 19.4367 12.7143 20.3457 14.8148C20.5108 15.1959 20.423 15.5103 20.1102 15.667C19.7987 15.8224 19.4988 15.6985 19.2927 15.3303C19.2646 15.2789 19.2376 15.2274 19.2119 15.1748C18.6473 14.0176 17.7536 13.2345 16.546 12.7798C13.872 11.7733 10.7353 13.6319 10.3628 16.4595C10.3336 16.6804 10.3195 16.9048 10.3019 17.1269C10.2703 17.5279 10.0279 17.7815 9.68584 17.764C9.34266 17.7476 9.12714 17.4788 9.13066 17.072C9.15057 14.2549 11.3666 11.7605 14.1789 11.3969C14.4401 11.363 14.7024 11.3479 14.9648 11.3233L14.9636 11.3245Z" fill="#FF4F8E"/>
<path d="M8.12118 5.92996C8.05207 6.20114 8.00873 6.48285 7.90332 6.73884C7.82601 6.92937 7.86466 7.0299 7.99936 7.16315C8.92936 8.08075 9.85467 9.00185 10.7718 9.93346C10.9018 10.0655 11.0119 10.2421 11.0623 10.4186C11.129 10.6547 11.0224 10.8931 10.7917 10.9703C10.6113 11.0311 10.3853 10.9972 10.1897 10.9574C10.0901 10.9376 10.0069 10.8195 9.92494 10.7365C9.01369 9.82826 8.09892 8.92236 7.19587 8.00594C7.04594 7.85281 6.9335 7.81657 6.72267 7.90541C5.92035 8.24439 4.95638 8.04568 4.3766 7.42148C3.75113 6.74703 3.58598 5.95918 3.91863 5.09653C4.22902 4.29232 5.03603 3.75696 5.9016 3.74527C7.08577 3.72891 8.07316 4.7143 8.12118 5.92996ZM6.90539 5.8984C6.90188 5.36187 6.44859 4.91301 5.91331 4.91535C5.37804 4.91769 4.92358 5.37122 4.92124 5.90541C4.9189 6.45363 5.37921 6.90365 5.9344 6.89664C6.47787 6.88963 6.90891 6.44661 6.90539 5.89957V5.8984Z" fill="#FF4F8E"/>
<path d="M24.0247 15.5454C23.5468 15.5454 23.0689 15.5489 22.591 15.5454C22.1611 15.5419 21.8964 15.3163 21.8953 14.9621C21.8941 14.6091 22.16 14.3788 22.5887 14.3765C23.5444 14.373 24.5002 14.3695 25.456 14.38C25.648 14.3823 25.7429 14.3344 25.8191 14.145C26.2021 13.1795 27.2023 12.6512 28.2354 12.8464C29.2322 13.0346 29.9865 13.9557 29.9771 14.9726C29.9677 15.9861 29.224 16.885 28.2389 17.0731C27.207 17.2707 26.2021 16.7412 25.8202 15.778C25.7453 15.5898 25.6539 15.5337 25.4595 15.5395C24.9816 15.5547 24.5037 15.5442 24.0258 15.5442L24.0247 15.5454ZM27.8044 15.951C28.342 15.9545 28.7953 15.5103 28.8035 14.9738C28.8117 14.4373 28.3701 13.9814 27.8313 13.9697C27.2808 13.958 26.817 14.4127 26.817 14.9609C26.817 15.4975 27.2656 15.9475 27.8032 15.951H27.8044Z" fill="#FF4F8E"/>
<path d="M14.4002 5.91127C14.4002 5.43436 14.3932 4.95744 14.4037 4.48053C14.4072 4.31338 14.3627 4.22571 14.1952 4.15908C13.1961 3.75931 12.669 2.78445 12.8682 1.73711C13.0567 0.743539 13.9821 -0.0104114 14.9999 0.00010875C16.0154 0.00946 16.9161 0.754059 17.1023 1.73711C17.3015 2.78445 16.7744 3.75931 15.7765 4.15908C15.6078 4.22688 15.5668 4.31455 15.568 4.4817C15.575 5.43553 15.5832 6.38935 15.5621 7.34318C15.5574 7.53839 15.4825 7.79321 15.3454 7.90893C15.2131 8.01998 14.946 8.04336 14.7598 8.00362C14.508 7.94985 14.4061 7.71139 14.4025 7.46007C14.3955 6.94458 14.4002 6.42793 14.4002 5.91244H14.399L14.4002 5.91127ZM15.9791 2.1696C15.9838 1.63307 15.5399 1.17837 15.0022 1.17019C14.4517 1.16083 13.9902 1.61671 13.9938 2.16727C13.9961 2.70613 14.4447 3.15148 14.9847 3.15265C15.5235 3.15265 15.9744 2.70847 15.9791 2.17077V2.1696Z" fill="#FF4F8E"/>
<path d="M5.94477 15.5454C5.45635 15.5454 4.96909 15.5524 4.48067 15.5419C4.30849 15.5384 4.2265 15.591 4.16091 15.7547C3.79313 16.6734 2.8725 17.2228 1.93079 17.1036C0.917639 16.975 0.168023 16.2491 0.0227842 15.2567C-0.134167 14.1848 0.533461 13.1796 1.60284 12.878C2.62536 12.5893 3.74862 13.1316 4.14686 14.1275C4.2265 14.3274 4.32372 14.3824 4.52752 14.38C5.47392 14.3695 6.4203 14.3742 7.36787 14.3765C7.75322 14.3765 7.98397 14.5378 8.05424 14.8394C8.14092 15.2064 7.8645 15.5337 7.43815 15.5431C6.94036 15.5536 6.44256 15.5454 5.94477 15.5454ZM2.17442 15.951C2.71204 15.944 3.15712 15.4905 3.15361 14.954C3.1501 14.4163 2.7015 13.9697 2.16154 13.9697C1.61104 13.9697 1.15541 14.4326 1.16712 14.9808C1.17884 15.5174 1.63563 15.958 2.17325 15.951H2.17442Z" fill="#FF4F8E"/>
<path d="M14.9825 13.411C16.9795 13.4402 18.6826 15.0568 18.7341 16.9937C18.747 17.4753 18.5455 17.7535 18.1754 17.7663C17.8217 17.778 17.5991 17.5244 17.5593 17.0626C17.4574 15.8727 16.7628 15.0241 15.6255 14.7015C14.2282 14.304 12.6704 15.3058 12.4572 16.7412C12.4373 16.8756 12.4244 17.0112 12.4092 17.1468C12.3635 17.5512 12.1152 17.792 11.7744 17.7628C11.4441 17.7348 11.2367 17.4729 11.2379 17.0837C11.2426 15.4834 12.4443 13.965 14.0338 13.5688C14.3442 13.4916 14.6651 13.4624 14.9813 13.411H14.9825Z" fill="#FF4F8E"/>
<path d="M20.8435 17.169C20.847 17.4975 20.5788 17.7698 20.2567 17.7652C19.9475 17.7605 19.6839 17.4952 19.6793 17.1842C19.6746 16.8604 19.9463 16.5881 20.2708 16.5928C20.5882 16.5963 20.84 16.8499 20.8435 17.1702V17.169Z" fill="#FF4F8E"/>
<path d="M15.5667 9.35487C15.5632 9.65995 15.2821 9.93347 14.9787 9.92997C14.6718 9.92529 14.4001 9.64944 14.4036 9.34318C14.4071 9.03576 14.6835 8.76574 14.9904 8.76924C15.2973 8.77275 15.5702 9.05095 15.5667 9.35487Z" fill="#FF4F8E"/>
</svg>
