<svg width="32" height="33" viewBox="0 0 32 33" fill="none" xmlns="http://www.w3.org/2000/svg">
<path d="M6.36946 7.35215C6.33734 6.70718 6.2564 6.06862 6.28209 5.43519C6.39131 2.77836 8.60125 0.408763 11.2558 0.0715312C11.5834 0.029217 11.9162 0.0048556 12.2477 0.0048556C15.7168 -0.000273399 19.1846 -0.0028379 22.6537 0.0048556C25.2658 0.00998461 27.4179 1.53586 28.2916 3.9824C29.4339 7.18033 27.3832 10.8386 24.0529 11.549C23.9488 11.5708 23.8473 11.6015 23.7214 11.6349C23.7214 12.367 23.724 13.0915 23.7188 13.8173C23.7188 13.9981 23.7188 14.1853 23.6739 14.3571C23.5158 14.9469 22.8092 15.2482 22.2862 14.9213C21.8995 14.6789 21.5564 14.3648 21.2018 14.0724C20.3525 13.371 19.4968 12.6761 18.6694 11.949C18.3713 11.6874 18.0719 11.6759 17.7481 11.7221C17.6556 12.1811 17.6081 12.6312 17.4719 13.0518C16.8693 14.9161 15.2529 16.0509 13.201 16.0663C11.938 16.0766 10.6737 16.0625 9.41071 16.0766C9.24625 16.0779 9.05352 16.1497 8.92632 16.2523C8.19267 16.8421 7.47444 17.4499 6.75235 18.0538C6.41058 18.3398 6.0354 18.4859 5.59984 18.2898C5.15142 18.0872 5.01137 17.7012 5.01137 17.2409C5.01137 16.91 4.99853 16.5779 5.01651 16.2471C5.02808 16.0317 4.96383 15.9266 4.74669 15.8599C3.44 15.4611 2.53803 14.6135 1.98554 13.371C0.876717 10.8822 2.592 7.80478 5.30304 7.44063C5.66151 7.3919 6.02512 7.37908 6.37075 7.35087L6.36946 7.35215ZM21.7607 11.9747C21.7607 11.5195 21.7569 11.1566 21.7607 10.7937C21.7684 10.1577 22.1346 9.77689 22.7642 9.74099C22.9351 9.73073 23.106 9.71534 23.2756 9.69226C25.2337 9.42684 26.7138 7.68682 26.6355 5.74806C26.5519 3.69517 24.9613 2.04748 22.9415 1.9885C21.4125 1.94362 19.8797 1.96926 18.3494 1.97054C16.187 1.97054 14.0233 1.93721 11.8622 1.99363C9.51864 2.05389 7.77252 4.40426 8.30831 6.68538C8.74002 8.52156 10.2741 9.73329 12.1963 9.74099C14.3047 9.74868 16.4144 9.7474 18.5229 9.7397C18.8968 9.73842 19.2103 9.84741 19.4917 10.0885C19.9298 10.4642 20.3769 10.8309 20.8202 11.2002C21.1119 11.4438 21.4061 11.6836 21.7594 11.9759L21.7607 11.9747ZM15.7078 11.7003C15.5754 11.7003 15.4585 11.7003 15.3429 11.7003C14.3471 11.7003 13.3514 11.7067 12.3569 11.6964C11.9843 11.6926 11.6065 11.6759 11.2391 11.6208C9.74606 11.3989 8.52802 10.6886 7.56309 9.53198C7.486 9.43966 7.33953 9.35888 7.22261 9.35503C6.74207 9.33964 6.25897 9.33707 5.77843 9.36656C4.35353 9.45504 3.3128 10.9386 3.70082 12.3055C4.01047 13.3954 4.78652 14.0019 6.00328 14.1032C6.57889 14.1506 6.92452 14.484 6.98748 15.0534C6.9939 15.1123 6.99776 15.1713 7.00675 15.2829C7.35238 14.9956 7.67102 14.7469 7.97168 14.4802C8.27619 14.2096 8.61796 14.0968 9.02654 14.0994C10.4399 14.1109 11.8532 14.1135 13.2653 14.1006C14.6658 14.0878 15.7039 13.0812 15.7103 11.7003H15.7078Z" fill="#FF4F8E"/>
<path d="M28.0669 24.6997C28.6964 25.1305 29.3401 25.5139 29.9158 25.982C30.7368 26.6474 31.4268 27.4476 31.7981 28.4529C32.5638 30.5275 31.0593 32.7586 28.8416 32.8163C27.1944 32.8587 25.546 32.8279 23.8975 32.8292C22.9339 32.8292 21.9715 32.8394 21.0079 32.8266C19.0433 32.7984 17.5915 31.2199 17.7251 29.2645C17.7765 28.5118 18.1349 27.8822 18.5705 27.2911C19.3324 26.2564 20.2935 25.4588 21.446 24.8895C21.5218 24.8523 21.5951 24.8113 21.7043 24.7548C20.6468 23.6021 20.219 22.2698 20.5184 20.7427C20.7329 19.6515 21.3008 18.7629 22.1951 18.0987C23.99 16.7626 26.4839 16.96 28.0257 18.5295C29.5599 20.0913 29.8451 22.802 28.0669 24.7023V24.6997ZM24.847 30.8609C24.847 30.8609 24.847 30.8519 24.847 30.8468C26.1743 30.8468 27.5028 30.8789 28.8288 30.8365C29.7796 30.8058 30.3552 29.7364 29.8644 28.9337C28.7144 27.0552 27.0069 26.073 24.8085 26.0679C23.0225 26.064 21.5308 26.8077 20.3847 28.181C20.1098 28.5106 19.831 28.8952 19.7307 29.2991C19.5175 30.1608 20.1676 30.8532 21.1209 30.8609C22.3634 30.8712 23.6046 30.8635 24.847 30.8635V30.8609ZM22.4019 21.6223C22.3981 22.9776 23.5275 24.1047 24.8714 24.0881C26.2218 24.0701 27.3178 22.9725 27.3229 21.6326C27.3281 20.2939 26.2282 19.1847 24.8817 19.1719C23.5211 19.1591 22.4058 20.2618 22.4019 21.6236V21.6223Z" fill="white"/>
<path d="M2.97743 26.2397C2.24764 25.2972 1.95983 24.2663 2.18853 23.1225C2.35942 22.266 2.80012 21.5582 3.48495 21.0094C4.87259 19.899 6.84356 19.9515 8.18494 21.0812C9.39142 22.0968 10.0775 24.3163 8.6385 26.2205C9.05993 26.5218 9.50577 26.7975 9.89894 27.1321C10.6326 27.754 11.2609 28.4695 11.4999 29.4338C11.9059 31.0763 10.675 32.7676 8.97898 32.8087C6.85126 32.8587 4.71969 32.8689 2.59198 32.8074C0.50152 32.7471 -0.681829 30.3826 0.420574 28.5837C0.956358 27.7104 1.66945 27.018 2.54701 26.4936C2.67549 26.4166 2.80269 26.341 2.97486 26.2397H2.97743ZM5.79768 30.8609C6.77032 30.8609 7.74295 30.8609 8.71687 30.8609C9.0625 30.8609 9.34259 30.7442 9.51476 30.4275C9.6895 30.1057 9.60856 29.8146 9.41969 29.5274C7.70441 26.9142 3.96034 26.8821 2.19881 29.4633C1.99323 29.7646 1.88017 30.0711 2.05491 30.4186C2.23864 30.7814 2.56628 30.8661 2.94274 30.8635C3.89482 30.8584 4.84561 30.8622 5.79768 30.8609ZM4.08626 23.8791C4.0914 24.8113 4.85075 25.5716 5.78227 25.5755C6.71378 25.5793 7.50525 24.7856 7.49754 23.8573C7.48855 22.9264 6.72663 22.1724 5.79255 22.1698C4.83918 22.1673 4.08241 22.9264 4.08755 23.8791H4.08626Z" fill="white"/>
</svg>
