<svg width="31" height="30" viewBox="0 0 31 30" fill="none" xmlns="http://www.w3.org/2000/svg">
<path d="M20.263 13.0492C20.7858 16.2542 19.645 18.6377 16.8313 20.2523C17.5123 20.9617 17.7256 21.8016 17.3667 22.852C17.7382 22.7902 18.0707 22.7765 18.3734 22.6769C21.2536 21.7306 24.1304 20.7706 27.0071 19.8117C27.3912 19.6836 27.773 19.5749 28.1835 19.6561C28.962 19.8106 29.5124 20.3575 29.6683 21.1356C29.8105 21.8496 29.494 22.5923 28.8359 23.0019C27.7994 23.6473 26.7514 24.2743 25.708 24.9082C23.752 26.0971 21.7902 27.278 19.841 28.4772C19.0774 28.9474 18.2645 29.1614 17.369 29.1591C13.4718 29.1488 9.57345 29.1557 5.67624 29.1523C5.47903 29.1523 5.32768 29.2106 5.15455 29.3147C4.89428 29.4704 4.5847 29.6134 4.28889 29.6283C3.45991 29.6695 2.6275 29.6523 1.79623 29.6397C0.991339 29.6283 0.35384 29.0001 0.352694 28.1991C0.345814 24.7675 0.345814 21.3347 0.352694 17.902C0.35384 17.1182 0.958087 16.4945 1.7412 16.4739C2.59998 16.4511 3.46106 16.4556 4.31984 16.4717C4.88281 16.482 5.28526 16.7772 5.56846 17.2566C5.61662 17.3379 5.72898 17.434 5.81039 17.434C6.75631 17.426 7.6965 17.434 8.65619 17.8894C7.7309 16.316 7.47292 14.7221 7.86161 13.0412C5.0869 11.8626 3.71904 9.67251 3.40373 6.80387C3.24894 5.39873 3.30168 3.96841 3.28907 2.54954C3.28449 2.01403 3.70299 1.63986 4.2499 1.60782C5.19009 1.55404 6.11309 1.41902 6.95811 0.969328C7.18399 0.849182 7.38922 0.688987 7.60134 0.544812C7.9648 0.296509 8.38559 0.263326 8.72269 0.531081C9.68925 1.30231 10.8278 1.52658 12.0145 1.6021C12.7151 1.64673 13.0785 2.0106 13.0716 2.71546C13.0613 3.92608 13.0705 5.13784 13.0109 6.34503C12.9788 6.99382 12.8205 7.63574 12.7162 8.29941C14.1735 8.00991 15.5861 8.17697 16.9643 8.87039C16.97 8.74452 16.978 8.64726 16.9792 8.54886C16.9792 7.46182 17.0308 6.37249 16.9689 5.28888C16.837 2.97749 17.6499 2.13075 19.9889 2.29781C20.1196 2.30696 20.2503 2.29895 20.412 2.29895C20.412 2.09871 20.4074 1.92936 20.412 1.76001C20.4361 1.00137 21.0403 0.370886 21.8005 0.356011C22.8221 0.336558 23.8449 0.338846 24.8665 0.354865C25.6312 0.367452 26.2366 0.984206 26.2687 1.74399C26.2756 1.91334 26.2687 2.08383 26.2687 2.29781C26.6884 2.29781 27.0862 2.28865 27.4829 2.30124C27.7489 2.31039 28.0218 2.31611 28.2764 2.38248C29.0962 2.5976 29.6912 3.34022 29.6958 4.18582C29.7084 6.51209 29.713 8.83835 29.6947 11.1646C29.6867 12.2333 28.7958 13.0423 27.6779 13.0446C25.3182 13.0492 22.9586 13.0458 20.5989 13.0458C20.4854 13.0458 20.373 13.0458 20.2664 13.0458L20.263 13.0492ZM5.74159 28.159C5.82529 28.1659 5.88033 28.1739 5.93651 28.1739C9.8234 28.1739 13.7114 28.1739 17.5983 28.1739C18.1773 28.1739 18.7082 28.0195 19.2001 27.7151C19.622 27.4542 20.0485 27.2013 20.4728 26.9439C23.048 25.3785 25.6255 23.8166 28.1961 22.2421C28.3738 22.1334 28.5435 21.9629 28.641 21.7798C28.8084 21.464 28.7281 21.1414 28.4885 20.8816C28.211 20.5807 27.8682 20.5509 27.4898 20.6779C24.6773 21.6174 21.8636 22.5511 19.0522 23.4928C18.5339 23.6667 18.0168 23.8017 17.4596 23.7949C16.1708 23.78 14.8809 23.7869 13.591 23.7926C13.325 23.7926 13.0556 23.8052 12.7919 23.8418C12.0936 23.9379 11.4928 24.2606 10.9218 24.6553C10.6627 24.835 10.3738 24.7732 10.2167 24.5432C10.0619 24.3167 10.1249 24.0306 10.3806 23.8464C11.2348 23.2296 12.175 22.836 13.2436 22.8211C14.1701 22.8074 15.0965 22.8188 16.0229 22.8028C16.1422 22.8005 16.3073 22.7296 16.3703 22.6369C16.6616 22.2066 16.6363 21.6048 16.3279 21.186C15.9484 20.6699 15.4336 20.3884 14.7915 20.3781C13.9419 20.3655 13.0911 20.3758 12.2415 20.3724C11.1076 20.3678 10.0837 20.0326 9.17444 19.3506C8.99098 19.2133 8.80524 19.0783 8.60918 18.9604C7.71944 18.4249 6.74714 18.3608 5.74159 18.4443V28.159ZM14.0462 9.1267C13.7619 9.15416 13.4752 9.16904 13.1932 9.21252C10.9218 9.56152 9.171 11.2939 8.73645 13.6133C8.334 15.7679 9.41522 18.0633 11.3736 19.1595C11.6189 19.2968 11.9274 19.3746 12.2094 19.3849C13.02 19.4147 13.8318 19.3849 14.6436 19.4009C14.9463 19.4067 15.2467 19.4822 15.5494 19.5051C15.7202 19.5188 15.9117 19.536 16.0642 19.4753C18.4617 18.5164 19.802 16.0254 19.3193 13.4531C18.855 10.9781 16.6249 9.15531 14.0462 9.1267ZM23.3335 3.27729C21.9106 3.27729 20.4877 3.27614 19.0648 3.27729C18.3436 3.27729 17.9549 3.67091 17.9538 4.39636C17.9526 6.01663 17.9572 7.63689 17.948 9.25715C17.948 9.45282 18.0168 9.57067 18.159 9.68853C18.8733 10.2835 19.426 11.0079 19.8101 11.8523C19.8926 12.0331 19.9935 12.0754 20.177 12.0754C22.6501 12.0697 25.1233 12.072 27.5976 12.0709C28.336 12.0709 28.7201 11.6807 28.7201 10.9358C28.7201 8.76283 28.7201 6.58989 28.7201 4.41696C28.7201 3.65718 28.3383 3.27729 27.5735 3.27729C26.1598 3.27729 24.7472 3.27729 23.3335 3.27729ZM8.12991 12.0697C8.16316 12.04 8.18265 12.0297 8.18953 12.0148C8.85569 10.5433 9.9071 9.44595 11.3736 8.75024C11.4469 8.71591 11.5203 8.6198 11.5387 8.54085C11.713 7.7925 11.9595 7.0476 12.0225 6.28896C12.1154 5.17217 12.0741 4.04394 12.0902 2.92028C12.0913 2.81844 12.0902 2.71546 12.0902 2.59989C10.657 2.49919 9.30286 2.24174 8.16201 1.3332C7.02003 2.25547 5.66707 2.49233 4.24761 2.59645C4.29347 4.27736 4.13066 5.94683 4.50673 7.59226C4.81631 8.94362 5.40565 10.1382 6.46738 11.0651C6.96499 11.4999 7.51535 11.85 8.13106 12.0709L8.12991 12.0697ZM4.7521 23.0351C4.7521 21.3862 4.7521 19.7362 4.7521 18.0873C4.7521 17.6079 4.59273 17.4466 4.12263 17.4443C3.39685 17.442 2.67107 17.442 1.94414 17.4443C1.48666 17.4454 1.32384 17.609 1.32384 18.0645C1.32384 21.3919 1.32384 24.7194 1.32384 28.0458C1.32384 28.4955 1.49583 28.6648 1.95102 28.666C2.65846 28.6682 3.36474 28.666 4.07218 28.666C4.59731 28.666 4.7521 28.5092 4.75325 27.9817C4.75325 26.3328 4.75325 24.6828 4.75325 23.0339L4.7521 23.0351ZM25.2884 2.28865C25.2884 2.11701 25.293 1.97398 25.2884 1.83324C25.2746 1.52429 25.0958 1.3332 24.7828 1.32977C23.8185 1.32176 22.8542 1.3229 21.8888 1.32977C21.6136 1.33206 21.4187 1.50141 21.3923 1.75085C21.374 1.92592 21.3889 2.10443 21.3889 2.28865H25.2884Z" fill="white"/>
<path d="M3.10206 29.9989C2.73057 29.9989 2.36137 29.9931 1.99905 29.9874L1.78809 29.984C0.790565 29.9691 0.00745273 29.1864 0.00515959 28.2012C-0.00171986 24.8028 -0.00171986 21.338 0.00515959 17.903C0.00745273 16.9361 0.764194 16.158 1.72732 16.1317C2.48062 16.1111 3.28093 16.1099 4.32202 16.1294C4.96639 16.1408 5.4984 16.4704 5.86072 17.0825C5.86186 17.0848 5.86416 17.0871 5.86645 17.0894C6.48216 17.0837 7.19877 17.0837 7.94519 17.2725C7.35356 15.9623 7.19533 14.6338 7.46363 13.2401C4.87581 12.0467 3.39329 9.89435 3.05734 6.8392C2.9381 5.75559 2.94039 4.6491 2.94269 3.57922C2.94269 3.23594 2.94383 2.89267 2.94039 2.55054C2.93351 1.84797 3.47355 1.30674 4.22456 1.26325C5.02257 1.21748 5.9513 1.11107 6.79059 0.664809C6.93735 0.587 7.07953 0.486307 7.22973 0.379892C7.28706 0.339843 7.34438 0.298651 7.40171 0.259747C7.9085 -0.0869618 8.49555 -0.0869631 8.93239 0.262034C9.89437 1.02868 11.0386 1.19574 12.0316 1.25868C12.9293 1.31589 13.4189 1.83424 13.4109 2.71874C13.4086 2.98764 13.4075 3.25654 13.4063 3.52544C13.4017 4.45457 13.3972 5.41574 13.3501 6.36204C13.3272 6.83004 13.2412 7.29461 13.1587 7.7443C13.1506 7.79007 13.1415 7.83584 13.1334 7.88275C14.3419 7.72485 15.5149 7.87932 16.6316 8.34274C16.6328 8.07613 16.6374 7.80952 16.6408 7.54291C16.6523 6.8083 16.6637 6.04737 16.6213 5.30933C16.5468 4.00832 16.7681 3.15013 17.3161 2.61118C17.8631 2.07224 18.7195 1.86513 20.0094 1.95667C20.0266 1.95782 20.0438 1.95896 20.0622 1.95896C20.0622 1.88802 20.0622 1.81936 20.0645 1.75071C20.0954 0.795256 20.8533 0.033183 21.7901 0.0148749C22.7635 -0.0034331 23.7702 -0.00457498 24.8686 0.0137331C25.8054 0.0286083 26.5701 0.783813 26.6091 1.7324C26.6126 1.80677 26.6126 1.88001 26.6126 1.95553H26.6389C26.9313 1.95324 27.2076 1.95095 27.4908 1.9601H27.5207C27.7947 1.9704 28.0779 1.97841 28.3599 2.05279C29.3414 2.31024 30.0305 3.18674 30.0351 4.18682C30.05 6.98909 30.05 9.14258 30.0339 11.1702C30.0236 12.4128 28.9871 13.3877 27.6732 13.3912C26.0049 13.3946 24.3355 13.3946 22.6672 13.3935H20.6573C21.0265 16.396 19.9154 18.7291 17.3517 20.3402C17.8115 20.9604 17.9708 21.6653 17.8275 22.4422C17.988 22.4205 18.1314 22.3953 18.2632 22.3518C20.9439 21.4707 23.6647 20.5645 26.2973 19.6869L26.8946 19.4878C27.3074 19.3504 27.7523 19.2234 28.2476 19.3218C29.1637 19.5026 29.8207 20.1571 30.0018 21.0703C30.175 21.9399 29.7874 22.813 29.0135 23.2947C28.2625 23.7627 27.4931 24.2272 26.7502 24.6769C26.4612 24.852 26.1723 25.0271 25.8833 25.2022C25.3032 25.5546 24.723 25.9059 24.1428 26.2572C22.7887 27.0776 21.3876 27.9266 20.0175 28.7699C19.2114 29.2654 18.34 29.5023 17.3643 29.5034C14.8705 29.4965 12.3354 29.4965 9.88405 29.4977C8.47949 29.4977 7.07609 29.4977 5.67268 29.4977C5.55802 29.4977 5.46744 29.5274 5.32756 29.611C4.94575 29.8387 4.6098 29.9577 4.30252 29.9737C3.90351 29.9931 3.50107 30 3.10206 30V29.9989ZM2.97364 16.8033C2.53336 16.8033 2.13435 16.8091 1.74681 16.8194C1.14715 16.8354 0.694251 17.3022 0.693104 17.9053C0.686225 21.3392 0.686225 24.8028 0.693104 28.2001C0.694251 28.8065 1.17925 29.2894 1.79726 29.2974L2.00823 29.3009C2.75121 29.3123 3.51941 29.3237 4.26698 29.286C4.45731 29.2768 4.69465 29.1876 4.97327 29.0205C5.14755 28.9164 5.36769 28.81 5.67153 28.81C7.07494 28.81 8.4795 28.81 9.8829 28.81C12.3354 28.81 14.8716 28.81 17.3654 28.8157H17.3792C18.2219 28.8157 18.9661 28.6097 19.6563 28.1852C21.0288 27.3408 22.431 26.4917 23.7863 25.6702C24.3664 25.3189 24.9466 24.9676 25.5256 24.6152C25.8146 24.4389 26.1046 24.2639 26.3936 24.0888C27.1354 23.6402 27.9025 23.1757 28.65 22.7111C29.1786 22.3816 29.4446 21.79 29.3277 21.203C29.2004 20.5622 28.7578 20.1205 28.1134 19.9935C27.7832 19.9283 27.4519 20.0244 27.1125 20.1377L26.5151 20.3368C23.8826 21.2144 21.1595 22.1218 18.4788 23.0029C18.2437 23.0796 18.0098 23.1105 17.7622 23.1425C17.6521 23.1562 17.5397 23.1711 17.4216 23.1906L16.8529 23.2855L17.0387 22.7409C17.3437 21.8472 17.198 21.132 16.5812 20.489L16.2773 20.172L16.658 19.9535C19.3536 18.4064 20.4211 16.166 19.9223 13.1028L19.857 12.7046H22.6684C24.3355 12.7046 26.0037 12.7069 27.672 12.7035C28.6191 12.7012 29.3391 12.0398 29.346 11.1645C29.3621 9.14029 29.3632 6.98909 29.3471 4.19025C29.3437 3.50141 28.8656 2.89496 28.1845 2.7176C27.977 2.66382 27.7442 2.65581 27.4977 2.6478H27.4679C27.1985 2.63865 26.9279 2.63979 26.6424 2.64208C26.5185 2.64208 26.3924 2.64437 26.2652 2.64437H25.9212V2.30109C25.9212 2.229 25.9212 2.16264 25.9223 2.09856C25.9235 1.97384 25.9246 1.86628 25.92 1.761C25.896 1.17515 25.4293 0.709438 24.856 0.700284C23.7656 0.68312 22.767 0.683118 21.8015 0.701426C21.2305 0.711724 20.7696 1.18316 20.7501 1.77245C20.7467 1.8823 20.7478 1.991 20.749 2.11C20.749 2.17065 20.749 2.23358 20.749 2.29995V2.64322H20.405C20.3534 2.64322 20.3053 2.64322 20.2594 2.64437C20.1562 2.64666 20.0599 2.6478 19.9579 2.64093C18.8789 2.56427 18.1921 2.70959 17.7966 3.09978C17.3998 3.49112 17.2428 4.17995 17.3058 5.27042C17.3494 6.03364 17.3379 6.80601 17.3265 7.55321C17.3219 7.88504 17.3161 8.21802 17.3161 8.54985C17.3161 8.62079 17.3127 8.69288 17.307 8.77298C17.3047 8.80845 17.3024 8.84621 17.3012 8.88741L17.2772 9.41605L16.8036 9.17805C15.5172 8.53154 14.2009 8.35418 12.7769 8.63682L12.293 8.73293L12.3698 8.24662C12.4031 8.03379 12.4421 7.82325 12.4799 7.61958C12.5624 7.17217 12.6404 6.75109 12.661 6.32771C12.7069 5.39629 12.7126 4.44313 12.7172 3.52086C12.7184 3.25082 12.7195 2.98078 12.7218 2.71188C12.7264 2.19925 12.5131 1.97727 11.9869 1.94409C10.9515 1.87886 9.61919 1.68892 8.50128 0.798688C8.23183 0.583569 7.93946 0.724312 7.78926 0.827295C7.73422 0.865055 7.68033 0.902814 7.62644 0.940574C7.46477 1.055 7.29852 1.17286 7.11278 1.27126C6.15653 1.78046 5.13493 1.89946 4.26239 1.94981C3.94364 1.96811 3.6226 2.15921 3.62604 2.54482C3.62948 2.89038 3.62834 3.23595 3.62834 3.58151C3.62604 4.63193 3.6249 5.71897 3.73955 6.76482C4.05715 9.6552 5.48808 11.6611 7.98991 12.7241L8.25476 12.8374L8.18941 13.1177C7.81907 14.7162 8.06672 16.2209 8.945 17.7153L9.51027 18.6765L8.50128 18.1993C7.64364 17.7931 6.80894 17.7691 5.80568 17.7771C5.57293 17.7737 5.36311 17.5986 5.2645 17.4315C5.02143 17.0185 4.71644 16.8228 4.30711 16.8159C3.81294 16.8068 3.37494 16.8022 2.9702 16.8022L2.97364 16.8033ZM2.92778 29.0137C2.60215 29.0137 2.27652 29.0137 1.9509 29.0125C1.30767 29.0102 0.980896 28.6864 0.980896 28.049C0.980896 24.7216 0.980896 21.3941 0.980896 18.0666C0.980896 17.4201 1.2962 17.1043 1.94402 17.1031C2.67095 17.1008 3.39788 17.1008 4.1248 17.1031C4.78752 17.1054 5.0971 17.4178 5.0971 18.0883C5.0971 19.2818 5.0971 20.4752 5.0971 21.6676V23.0361V24.4218C5.0971 25.6095 5.0971 26.7972 5.0971 27.985C5.0971 28.7047 4.79096 29.0125 4.07321 29.0125C3.6914 29.0125 3.30959 29.0125 2.92892 29.0125L2.92778 29.0137ZM3.03326 17.7874C2.67095 17.7874 2.30748 17.7874 1.94517 17.7897C1.67801 17.7897 1.66769 17.8011 1.66769 18.0677C1.66769 21.3952 1.66769 24.7227 1.66769 28.049C1.66769 28.3076 1.68604 28.326 1.9509 28.326C2.65719 28.3282 3.36348 28.326 4.06977 28.326C4.40686 28.326 4.40686 28.3191 4.40686 27.9838C4.40686 26.7961 4.40686 25.6084 4.40686 24.4218V23.0361V21.6676C4.40686 20.4741 4.40686 19.2818 4.40686 18.0883C4.40686 17.7897 4.39081 17.7897 4.12022 17.7885C3.7579 17.7874 3.39444 17.7863 3.03212 17.7863L3.03326 17.7874ZM17.5993 28.5182C15.3784 28.5182 13.1564 28.5182 10.9355 28.5182H5.93754C5.89053 28.5182 5.84467 28.5136 5.78734 28.509C5.76555 28.5068 5.74147 28.5045 5.7151 28.5022L5.3975 28.477V18.1284L5.71281 18.1021C6.5865 18.0288 7.72505 18.0265 8.78678 18.6662C9.00004 18.7943 9.1984 18.9385 9.3807 19.0758C10.2177 19.704 11.1808 20.0244 12.2426 20.029C12.5636 20.0301 12.8846 20.029 13.2045 20.029C13.7262 20.0278 14.2651 20.0267 14.796 20.0347C15.5309 20.0462 16.157 20.3734 16.6053 20.9822C17.0043 21.5245 17.0249 22.2843 16.6546 22.829C16.517 23.0326 16.2349 23.1425 16.0285 23.1459C15.5378 23.1551 15.0413 23.1551 14.5598 23.1562C14.1298 23.1562 13.6849 23.1574 13.2481 23.1642C12.3308 23.178 11.4583 23.4915 10.5823 24.1243C10.5353 24.1586 10.4321 24.249 10.5009 24.3497C10.5181 24.3749 10.5468 24.4069 10.5892 24.4138C10.6282 24.4206 10.6775 24.4058 10.7256 24.3726C11.2244 24.027 11.9043 23.6162 12.7448 23.5006C12.9936 23.4663 13.2619 23.4492 13.5898 23.448L14.0358 23.4457C15.1583 23.4411 16.3198 23.4366 17.4629 23.4503C17.9972 23.4549 18.512 23.3107 18.942 23.1665C20.5002 22.6447 22.0595 22.1253 23.6189 21.6058C24.8732 21.1881 26.1264 20.7705 27.3796 20.3517C28.0664 20.1217 28.4987 20.3871 28.7406 20.6492C29.0938 21.0325 29.1694 21.5154 28.9436 21.9399C28.8209 22.171 28.6133 22.3884 28.3749 22.5338C26.2709 23.8222 24.1268 25.1243 22.0526 26.3842L20.6504 27.2355C20.491 27.3316 20.3316 27.4277 20.1723 27.5238C19.9074 27.6829 19.6425 27.8431 19.38 28.0056C18.8319 28.3443 18.2323 28.5148 17.5982 28.5148L17.5993 28.5182ZM6.08544 27.8305H10.9343C13.1552 27.8305 15.3773 27.8305 17.5982 27.8305C18.1096 27.8305 18.5739 27.6978 19.0177 27.4231C19.2825 27.2595 19.5497 27.0982 19.8168 26.938C19.975 26.843 20.1344 26.7469 20.2927 26.6508L21.6949 25.7983C23.7679 24.5396 25.9109 23.2375 28.0148 21.949C28.1478 21.8678 28.2705 21.7408 28.3359 21.6184C28.3691 21.5566 28.4689 21.3689 28.2338 21.1137C28.1157 20.9856 27.9564 20.8826 27.5975 21.0027C26.3443 21.4215 25.0899 21.8392 23.8356 22.2568C22.2762 22.7763 20.718 23.2947 19.1598 23.8165C18.6748 23.9789 18.0912 24.1414 17.4537 24.1357C16.3163 24.122 15.1571 24.1266 14.0369 24.1311L13.5909 24.1334C13.2951 24.1334 13.0555 24.1494 12.8376 24.1792C12.2941 24.2547 11.7633 24.487 11.1166 24.9355C10.916 25.0751 10.6832 25.1289 10.4619 25.0877C10.2475 25.0477 10.0595 24.9218 9.93106 24.7342C9.66964 24.3497 9.77283 23.8588 10.1776 23.567C11.1728 22.8484 12.1726 22.4914 13.2366 22.4765C13.6769 22.4697 14.1241 22.4697 14.5563 22.4685C15.0345 22.4685 15.5298 22.4662 16.0136 22.4582C16.0331 22.4582 16.0721 22.4422 16.0916 22.4296C16.2888 22.1264 16.2716 21.6904 16.048 21.3872C15.7236 20.9455 15.3096 20.7281 14.7834 20.7201C14.2582 20.7121 13.7216 20.7132 13.2034 20.7144C12.8812 20.7144 12.559 20.7155 12.2368 20.7144C11.0237 20.7098 9.92303 20.3425 8.96449 19.6239C8.79709 19.4981 8.61593 19.3665 8.42904 19.2532C7.79843 18.8733 7.06577 18.72 6.08315 18.7646V27.8294L6.08544 27.8305ZM15.7901 19.8608C15.7018 19.8608 15.6169 19.8539 15.539 19.8482H15.5229C15.3807 19.8356 15.2443 19.815 15.1113 19.7944C14.945 19.7692 14.7879 19.7452 14.6377 19.7429C14.2926 19.7361 13.9395 19.7383 13.5978 19.7395C13.1403 19.7418 12.6668 19.7441 12.1978 19.7269C11.8516 19.7143 11.4904 19.6159 11.206 19.4569C9.12043 18.2909 7.96583 15.8616 8.39923 13.5491C8.8613 11.0798 10.7222 9.24441 13.1415 8.87253C13.3456 8.84164 13.5508 8.82447 13.748 8.80731C13.8363 8.80044 13.9246 8.79243 14.0129 8.78442L14.0312 8.78213H14.0496C16.8036 8.81303 19.161 10.7514 19.6563 13.3889C20.1723 16.1362 18.7471 18.7692 16.1914 19.7921C16.0595 19.8448 15.9208 19.8596 15.7889 19.8596L15.7901 19.8608ZM14.061 19.0518C14.2571 19.0518 14.4543 19.0518 14.6515 19.0564C14.8476 19.0598 15.0345 19.0884 15.2156 19.1159C15.3417 19.1353 15.461 19.1525 15.5779 19.1616H15.5951C15.7155 19.1719 15.8657 19.1845 15.938 19.1548C18.1852 18.2554 19.4385 15.936 18.9833 13.5148C18.5499 11.2034 16.4814 9.50416 14.0633 9.46869C13.9785 9.47669 13.8925 9.48356 13.8065 9.49157C13.6127 9.50759 13.4281 9.52246 13.2481 9.55107C11.1223 9.87833 9.48504 11.4963 9.078 13.675C8.69849 15.7026 9.71321 17.8343 11.5454 18.8584C11.7335 18.9637 11.988 19.0323 12.2254 19.0404C12.6794 19.0575 13.1461 19.0552 13.5967 19.0529C13.7503 19.0529 13.9062 19.0518 14.0633 19.0518H14.061ZM8.2089 12.462L8.01513 12.3923C7.39713 12.1703 6.80091 11.8098 6.24138 11.3212C5.20488 10.4161 4.5284 9.22038 4.17181 7.66649C3.89205 6.44214 3.90122 5.20063 3.9104 3.99916C3.91384 3.54146 3.91727 3.06774 3.90466 2.60432L3.89549 2.27706L4.22341 2.25303C5.50986 2.15806 6.8525 1.94866 7.94748 1.0653L8.16189 0.891372L8.37745 1.06301C9.50224 1.95896 10.8391 2.16493 12.1153 2.25532L12.4352 2.27821V2.7073C12.4352 2.78282 12.4352 2.85262 12.4352 2.92357C12.4306 3.25654 12.4306 3.58838 12.4306 3.92135C12.4306 4.70517 12.4317 5.51644 12.3652 6.31627C12.3171 6.89297 12.1715 7.4548 12.0293 7.99832C11.9765 8.202 11.9215 8.41254 11.8734 8.61736C11.8298 8.80273 11.6888 8.98009 11.5202 9.05904C10.1351 9.71699 9.14795 10.7297 8.50243 12.1554C8.46344 12.2401 8.40382 12.2881 8.37515 12.311C8.37057 12.3144 8.36598 12.3179 8.36025 12.3236L8.20661 12.462H8.2089ZM4.59834 2.91098C4.60293 3.27943 4.60063 3.64673 4.59834 4.00488C4.58917 5.22008 4.58114 6.36776 4.84256 7.5143C5.16474 8.92173 5.77014 9.99848 6.69428 10.8052C7.11507 11.1725 7.5393 11.4482 7.98647 11.6428C8.6939 10.2079 9.77627 9.13342 11.2083 8.44801C11.2576 8.23862 11.3115 8.02922 11.3654 7.82554C11.5053 7.2866 11.6383 6.77626 11.6807 6.25906C11.7449 5.48783 11.7438 4.69143 11.7426 3.92135C11.7426 3.58609 11.7426 3.24968 11.7472 2.91441C10.58 2.81143 9.28897 2.56656 8.16418 1.76215C7.06806 2.55626 5.81715 2.80113 4.59834 2.91098ZM20.1746 12.4186C19.9659 12.4186 19.6689 12.3739 19.4969 11.9941C19.1369 11.1999 18.6118 10.5134 17.9387 9.95156C17.7943 9.83141 17.6028 9.62774 17.6039 9.25471C17.6097 8.14707 17.6097 7.02113 17.6097 5.9318C17.6097 5.42032 17.6097 4.9077 17.6097 4.39622C17.6097 3.48196 18.1543 2.93615 19.0647 2.93386C20.0748 2.93272 21.0849 2.93272 22.0951 2.93386H23.3345H24.5717C25.5726 2.93386 26.5747 2.93386 27.5757 2.93386C28.5365 2.93386 29.0651 3.46136 29.0651 4.41681C29.0651 6.58975 29.0651 8.76268 29.0651 10.9356C29.0651 11.875 28.5296 12.4128 27.5986 12.414C25.1255 12.4151 22.6523 12.4128 20.1791 12.4186H20.1757H20.1746ZM20.1333 11.7309C20.1436 11.7309 20.1574 11.732 20.1768 11.732C22.65 11.7263 25.1243 11.7286 27.5975 11.7274C28.1432 11.7274 28.376 11.4906 28.376 10.9356C28.376 8.76268 28.376 6.58975 28.376 4.41681C28.376 3.84354 28.1513 3.62041 27.5734 3.61927C26.5724 3.61927 25.5715 3.61927 24.5705 3.61927H23.3334H22.0939C21.0838 3.61927 20.0748 3.61927 19.0647 3.61927C18.5338 3.61927 18.2976 3.85956 18.2976 4.39507C18.2976 4.90655 18.2976 5.41803 18.2976 5.93066C18.2976 7.02113 18.2976 8.14822 18.2919 9.25814C18.2919 9.32909 18.2988 9.35655 18.379 9.42406C19.1323 10.0523 19.7194 10.8212 20.123 11.7103C20.1264 11.7183 20.1298 11.7252 20.1321 11.7297L20.1333 11.7309ZM25.6334 2.63292H21.0459V2.28965C21.0459 2.23587 21.0448 2.18094 21.0437 2.12831C21.0402 1.99672 21.0368 1.85941 21.0517 1.71638C21.0964 1.28957 21.4392 0.98978 21.8875 0.986347C22.924 0.979482 23.8723 0.979482 24.7861 0.986347C25.278 0.98978 25.6105 1.31703 25.6322 1.81822C25.6368 1.92349 25.6357 2.02533 25.6345 2.13403C25.6345 2.18323 25.6345 2.23472 25.6345 2.28965V2.63292H25.6334ZM21.7282 1.94637H24.9477C24.9477 1.91319 24.9477 1.88115 24.9455 1.84911C24.9386 1.68777 24.8755 1.67518 24.7803 1.67404C23.87 1.66717 22.9252 1.66717 21.8921 1.67404C21.7477 1.67404 21.7385 1.75986 21.735 1.78732C21.7293 1.83767 21.7282 1.89145 21.7282 1.94637Z" fill="white"/>
<path d="M12.0936 15.9874C12.0856 15.6407 12.2553 15.4279 12.5488 15.413C12.8458 15.3982 13.0349 15.5858 13.0705 15.9325C13.1301 16.5138 13.5417 16.8868 14.0955 16.8639C14.6115 16.8422 15.0242 16.4062 15.0208 15.8867C15.0174 15.3478 14.6023 14.9439 14.0256 14.9176C13.0418 14.8729 12.2851 14.2322 12.1154 13.2985C11.9514 12.3956 12.4628 11.51 13.3457 11.1404C13.4385 11.1015 13.5325 10.9951 13.5669 10.8978C13.6518 10.6598 13.8077 10.5236 14.0508 10.5271C14.2939 10.5305 14.4452 10.6712 14.5243 10.9115C14.5553 11.0054 14.6596 11.1026 14.7536 11.145C15.437 11.4436 15.8475 11.954 15.9793 12.6851C16 12.7961 16.008 12.9151 15.9908 13.0261C15.953 13.2687 15.8062 13.4186 15.554 13.4426C15.3086 13.4655 15.0988 13.319 15.038 13.0822C15.0219 13.0181 15.0254 12.9495 15.0185 12.8842C14.9566 12.3384 14.5243 11.97 13.9797 11.9963C13.4729 12.0215 13.0751 12.4414 13.0716 12.9552C13.0682 13.4895 13.4672 13.9186 14.0187 13.9369C14.6367 13.9575 15.1538 14.1727 15.5494 14.6487C16.3852 15.6556 16.0137 17.1706 14.8052 17.6798C14.6516 17.7439 14.5289 17.7931 14.4957 17.9956C14.4601 18.2142 14.2709 18.3274 14.0519 18.3309C13.8341 18.3343 13.6392 18.2302 13.5979 18.0116C13.5578 17.8045 13.4374 17.7427 13.2723 17.6729C12.5786 17.3823 12.1097 16.7015 12.0936 15.9874Z" fill="#FF4F8E"/>
<path d="M23.3483 4.17078C25.2252 4.17764 26.7719 5.73154 26.7674 7.60353C26.7628 9.47667 25.2046 11.0226 23.3288 11.0157C21.4507 11.0088 19.9028 9.45493 19.9097 7.58294C19.9166 5.70751 21.4725 4.16277 23.3483 4.17078ZM23.3448 5.1514C22.0079 5.14568 20.9061 6.23729 20.8935 7.58065C20.8808 8.91256 21.9735 10.0179 23.3196 10.0362C24.6588 10.0545 25.7882 8.93544 25.787 7.59094C25.787 6.2556 24.6863 5.15712 23.3448 5.1514Z" fill="#FF4F8E"/>
<path d="M7.11611 7.45138C7.43027 7.03601 7.7043 6.67214 7.97833 6.30827C8.55621 5.53933 9.13408 4.76925 9.71195 4.00031C9.87591 3.7829 10.0892 3.70853 10.3403 3.8241C10.5707 3.92937 10.651 4.12961 10.5983 4.36876C10.5776 4.46602 10.5134 4.55985 10.4515 4.64224C9.52621 5.87803 8.59978 7.11153 7.67105 8.34389C7.3718 8.7398 7.10121 8.75697 6.74806 8.40912C6.47632 8.14136 6.20573 7.87361 5.93858 7.60127C5.68633 7.34382 5.66799 7.05775 5.8824 6.84721C6.09795 6.63667 6.37428 6.65612 6.6357 6.91816C6.79622 7.07949 6.94068 7.25685 7.11496 7.45252L7.11611 7.45138Z" fill="#FF4F8E"/>
<path d="M23.8494 7.07718C24.6359 7.16758 24.8033 7.25912 24.8056 7.58866C24.809 7.92622 24.6118 8.03607 23.831 8.10472C23.831 8.23746 23.8367 8.37477 23.831 8.51322C23.815 8.85078 23.6155 9.06246 23.3288 9.05674C23.0525 9.05102 22.8667 8.8462 22.8518 8.52123C22.8461 8.38964 22.8518 8.25805 22.8518 8.10243C22.454 8.04522 21.8944 8.21114 21.891 7.59782C21.8876 6.97764 22.4448 7.14012 22.8346 7.08863C22.8862 6.695 22.7269 6.1389 23.3494 6.14691C23.9422 6.15492 23.8012 6.69043 23.8494 7.07833V7.07718Z" fill="#FF4F8E"/>
</svg>
