<svg width="19" height="18" viewBox="0 0 19 18" fill="none" xmlns="http://www.w3.org/2000/svg">
<g id="Group">
<path id="Vector" d="M16.8534 16.9529H18.0603V18H0V16.9564H1.20482V16.692C1.20482 12.4395 1.20553 8.18631 1.202 3.9338C1.202 3.77162 1.21965 3.68278 1.41669 3.66374C1.74861 3.63131 2.07701 3.55798 2.41882 3.49945V0H8.34405V2.51512C8.75931 2.44743 9.14632 2.38468 9.55169 2.3184V4.8307H16.8526V16.9536L16.8534 16.9529ZM2.28111 4.5973V16.9395H3.64483V14.5379H7.1357V16.9416H8.49165V3.56503C6.41605 3.90982 4.35317 4.25251 2.28181 4.5966L2.28111 4.5973ZM15.7848 5.90881H9.575V16.9437H15.7848V5.90881ZM3.49158 3.32388C4.7649 3.11235 6.02057 2.90364 7.27271 2.69563V1.05696H3.49158V3.32388ZM4.70911 15.5928V16.9423H6.05235V15.5928H4.70911Z" fill="#FF4F8E"/>
<path id="Vector_2" d="M6.07915 4.84479H7.118V5.87989H6.07915V4.84479Z" fill="#FF4F8E"/>
<path id="Vector_3" d="M7.11876 8.30614H6.07779V7.27174H7.11876V8.30614Z" fill="#FF4F8E"/>
<path id="Vector_4" d="M6.07915 9.68821H7.1173V10.7226H6.07915V9.68821Z" fill="#FF4F8E"/>
<path id="Vector_5" d="M3.64694 12.1109H4.68439V13.1446H3.64694V12.1109Z" fill="#FF4F8E"/>
<path id="Vector_6" d="M7.11451 13.1545H6.0806V12.113H7.11451V13.1545Z" fill="#FF4F8E"/>
<path id="Vector_7" d="M3.64342 8.30405V7.27319H4.68581V8.30405H3.64342Z" fill="#FF4F8E"/>
<path id="Vector_8" d="M3.64551 9.68958H4.68648V10.724H3.64551V9.68958Z" fill="#FF4F8E"/>
<path id="Vector_9" d="M10.9479 7.26894H11.9825V8.30052H10.9479V7.26894Z" fill="#FF4F8E"/>
<path id="Vector_10" d="M10.9436 10.7268V9.68958H11.9811V10.7268H10.9436Z" fill="#FF4F8E"/>
<path id="Vector_11" d="M11.9896 12.1166V13.1454H10.9458V12.1166H11.9896Z" fill="#FF4F8E"/>
<path id="Vector_12" d="M14.4119 13.1538H13.3822V12.1145H14.4119V13.1538Z" fill="#FF4F8E"/>
<path id="Vector_13" d="M11.9811 15.5766H10.9451V14.5365H11.9811V15.5766Z" fill="#FF4F8E"/>
<path id="Vector_14" d="M14.4183 14.5386V15.573H13.3809V14.5386H14.4183Z" fill="#FF4F8E"/>
<path id="Vector_15" d="M14.4169 8.30687H13.3766V7.27319H14.4169V8.30687Z" fill="#FF4F8E"/>
<path id="Vector_16" d="M13.3794 9.68958H14.4134V10.7268H13.3794V9.68958Z" fill="#FF4F8E"/>
</g>
</svg>
