
<svg width="930" height="360" viewBox="0 0 93 36" fill="none" xmlns="http://www.w3.org/2000/svg">
<!-- <path fill-rule="evenodd" clip-rule="evenodd" d="M12.4497 35.5705H23.1209C32.0135 35.5705 35.5705 32.0135 35.5705 23.1209V12.4497C35.5705 3.55705 32.0135 0 23.1209 0H12.4497C3.55705 0 0 3.55705 0 12.4497V23.1209C0 32.0135 3.55705 35.5705 12.4497 35.5705ZM21.3425 18.1404V12.9827C21.3425 12.627 21.5204 12.4491 21.8761 12.4491H26.1445C26.5002 12.4491 26.6781 12.2713 26.6781 11.9156V7.64712C26.6781 7.29141 26.5002 7.11356 26.1445 7.11356H21.3425C18.319 7.11356 16.0069 9.42564 16.0069 12.4491V18.3183H12.9834C12.6277 18.3183 12.4499 18.4961 12.4499 18.8518V22.231C12.4499 22.5867 12.6277 22.7646 12.9834 22.7646H16.0069V35.57H21.3425V22.5867H25.2553C25.4331 22.5867 25.7888 22.4089 25.7888 22.231L26.5002 18.8518C26.5002 18.4961 26.3224 18.1404 25.9667 18.1404H21.3425Z" fill="#FF4F8E"/> -->
<path fill-rule="evenodd" clip-rule="evenodd" d="M69.3627 35.5705H80.0338C88.9265 35.5705 92.4835 32.0135 92.4835 23.1209V12.4497C92.4835 3.55705 88.9265 0 80.0338 0H69.3627C60.47 0 56.913 3.55705 56.913 12.4497V23.1209C56.913 32.0135 60.47 35.5705 69.3627 35.5705ZM74.6984 24.0094C75.5158 24.0094 76.3253 23.8484 77.0805 23.5356C77.8358 23.2228 78.522 22.7642 79.1 22.1862C79.678 21.6082 80.1366 20.922 80.4494 20.1667C80.7622 19.4115 80.9232 18.602 80.9232 17.7846C80.9232 16.9671 80.7622 16.1577 80.4494 15.4024C80.1366 14.6472 79.678 13.961 79.1 13.3829C78.522 12.8049 77.8358 12.3464 77.0805 12.0336C76.3253 11.7207 75.5158 11.5597 74.6984 11.5597C73.0474 11.5597 71.4641 12.2156 70.2967 13.3829C69.1294 14.5503 68.4735 16.1336 68.4735 17.7846C68.4735 19.4355 69.1294 21.0188 70.2967 22.1862C71.4641 23.3536 73.0474 24.0094 74.6984 24.0094ZM86.0502 8.75676C85.8344 8.84614 85.6031 8.89214 85.3695 8.89214C84.8978 8.89214 84.4455 8.70476 84.1119 8.37123C83.7784 8.03769 83.591 7.58531 83.591 7.11362C83.591 6.64192 83.7784 6.18955 84.1119 5.85601C84.4455 5.52247 84.8978 5.33509 85.3695 5.33509C85.6031 5.33509 85.8344 5.38109 86.0502 5.47047C86.2659 5.55985 86.462 5.69086 86.6271 5.85601C86.7923 6.02116 86.9233 6.21722 87.0127 6.433C87.1021 6.64879 87.1481 6.88006 87.1481 7.11362C87.1481 7.34718 87.1021 7.57845 87.0127 7.79423C86.9233 8.01001 86.7923 8.20607 86.6271 8.37123C86.462 8.53638 86.2659 8.66738 86.0502 8.75676Z" fill="#FFFFFF"/>
</svg>
