<svg
              xmlns="http://www.w3.org/2000/svg"
              width="33"
              height="32"
              viewBox="0 0 33 32"
              fill="none"
            >
              <path
                d="M24.1958 22.6583C24.3273 22.7467 24.463 22.8109 24.5631 22.9093C26.9152 25.251 29.2631 27.5969 31.6138 29.9371C31.9481 30.2694 32.1382 30.6388 32.021 31.1194C31.8181 31.9494 30.8478 32.276 30.1876 31.734C30.0862 31.6513 29.9976 31.5544 29.9047 31.4617C27.5811 29.1428 25.2561 26.824 22.934 24.5037C22.8425 24.4124 22.7682 24.304 22.6768 24.1928C19.1657 26.9951 15.2517 28.0361 10.8947 27.142C7.52079 26.4489 4.78139 24.6777 2.72506 21.9181C-1.41048 16.3677 -0.770285 8.59402 4.17835 3.88359C9.30132 -0.993701 16.9965 -1.31458 22.4782 3.13345C24.3944 4.68791 25.7806 6.6374 26.6365 8.95055C27.4968 11.2737 27.7169 13.6596 27.2896 16.1011C26.8638 18.5269 25.8406 20.6789 24.1944 22.6583H24.1958ZM13.7798 2.35195C7.45505 2.35765 2.34637 7.46882 2.35066 13.7865C2.35495 20.0485 7.49649 25.1768 13.7627 25.1682C20.106 25.1597 25.2261 20.0371 25.2133 13.7123C25.2004 7.45028 20.0631 2.34482 13.7812 2.35195H13.7798Z"
                fill="white"
              />
              <path
                d="M13.7913 20.6061C12.6724 20.6061 11.5535 20.6104 10.4345 20.6061C9.05127 20.6004 8.06954 19.6278 8.06668 18.2516C8.06097 16.2094 8.06668 14.1658 8.06525 12.1236C8.06525 11.3207 8.38249 10.6747 9.02554 10.1927C10.1473 9.35128 11.2662 8.5056 12.3966 7.67275C13.2554 7.04098 14.2914 7.03243 15.1517 7.66134C16.3034 8.50417 17.4424 9.36269 18.5784 10.2241C19.1972 10.6932 19.4958 11.3307 19.4973 12.1037C19.5001 14.1587 19.503 16.2137 19.4973 18.2673C19.493 19.6221 18.5084 20.5976 17.148 20.6047C16.0291 20.6104 14.9102 20.6047 13.7913 20.6047V20.6061ZM17.1766 18.3058C17.1923 18.2587 17.2051 18.2374 17.2051 18.216C17.208 16.2208 17.2123 14.2257 17.2009 12.2306C17.2009 12.1179 17.0951 11.9739 16.9965 11.8983C16.2806 11.3478 15.5532 10.8116 14.8301 10.2697C14.48 10.0087 14.1314 9.74631 13.7827 9.4839C12.7052 10.2897 11.6621 11.0769 10.6089 11.8498C10.4145 11.9924 10.3459 12.1422 10.3459 12.3803C10.3559 14.2443 10.3517 16.1096 10.3517 17.9735C10.3517 18.0862 10.3517 18.1988 10.3517 18.3015H12.6366C12.6366 17.5585 12.6223 16.8369 12.6452 16.1153C12.6523 15.8871 12.7124 15.6404 12.821 15.4408C13.0553 15.0086 13.5826 14.8118 14.0485 14.9316C14.5529 15.0614 14.9116 15.4892 14.9202 16.0169C14.933 16.7742 14.923 17.53 14.923 18.3044H17.1751L17.1766 18.3058Z"
                fill="#FF4F8E"
              />
            </svg>