<svg width="31" height="28" viewBox="0 0 31 28" fill="none" xmlns="http://www.w3.org/2000/svg">
<path d="M15.4208 0.00106001C19.3031 0.00106001 23.1866 -0.00132501 27.069 0.00106001C28.8148 0.00225252 30.1949 1.07193 30.5916 2.7331C30.655 3.00022 30.6801 3.28285 30.6812 3.55951C30.686 10.5142 30.686 17.4689 30.6836 24.4249C30.6836 26.4378 29.1577 27.9905 27.1395 27.9928C19.3043 28.0024 11.4692 28.0024 3.634 27.9928C1.61816 27.9905 0.0946204 26.4354 0.0934255 24.4225C0.0922306 17.4773 0.0922306 10.5321 0.0934255 3.58694C0.0946204 1.54178 1.62772 0.00583005 3.683 0.00344503C7.5952 -0.00251752 11.5086 0.00225252 15.4208 0.00225252V0.00106001ZM2.00651 6.37503V6.68866C2.00651 12.5713 2.00651 18.454 2.00651 24.3378C2.00651 25.4278 2.66014 26.0872 3.74991 26.0872C11.5062 26.0884 19.2637 26.0884 27.02 26.0872C28.1133 26.0872 28.7706 25.4313 28.7706 24.345C28.7706 18.4623 28.7706 12.5797 28.7706 6.697C28.7706 6.59206 28.7706 6.48831 28.7706 6.37622H2.00651V6.37503ZM2.01129 4.4372H28.767C28.767 4.06871 28.7861 3.7205 28.7622 3.37467C28.7299 2.91794 28.5184 2.5423 28.1564 2.2549C27.8098 1.98063 27.4083 1.90908 26.9794 1.90908C19.2529 1.91146 11.5253 1.91027 3.7989 1.91146C3.63998 1.91146 3.47986 1.921 3.32332 1.94604C2.61592 2.06172 2.06028 2.65916 2.01487 3.37348C1.99336 3.71931 2.01129 4.06752 2.01129 4.436V4.4372Z" fill="white"/>
<path d="M15.3955 23.9574C11.1965 23.9658 7.7503 20.5361 7.74074 16.3421C7.73118 12.123 11.1523 8.69927 15.3811 8.69331C19.6076 8.68734 23.0382 12.1098 23.0358 16.3278C23.0335 20.5242 19.604 23.9491 15.3955 23.9574ZM15.4038 10.6025C12.2492 10.593 9.66936 13.1414 9.65502 16.2824C9.63949 19.4533 12.2205 22.047 15.3895 22.047C18.5345 22.047 21.1156 19.4784 21.124 16.3421C21.1323 13.1783 18.574 10.6121 15.4038 10.6025Z" fill="#FF4F8E"/>
<path d="M15.3441 17.6884C15.0669 17.9746 14.7957 18.2667 14.5113 18.5446C14.0918 18.9548 13.5063 18.9667 13.1227 18.5863C12.7344 18.2012 12.7452 17.6252 13.1538 17.2018C13.4298 16.9156 13.7118 16.6354 13.9915 16.3528C13.9974 16.3468 13.9974 16.3337 14.0201 16.2633C13.7549 16.0129 13.4609 15.747 13.1813 15.4679C12.7475 15.0339 12.7248 14.4567 13.1132 14.0608C13.5003 13.666 14.0847 13.6851 14.522 14.1073C14.8004 14.3768 15.0753 14.6499 15.3525 14.9206C15.3585 14.9265 15.3704 14.9265 15.4588 14.9551C15.6954 14.7011 15.9511 14.4126 16.2224 14.1395C16.6717 13.6863 17.25 13.6553 17.6515 14.05C18.0554 14.4471 18.0315 15.0291 17.5834 15.4787C17.3098 15.7529 17.0266 16.0177 16.6968 16.3361C17.0397 16.658 17.3683 16.9454 17.6718 17.2579C17.9706 17.5655 18.016 18.0032 17.8236 18.361C17.63 18.7199 17.2381 18.9286 16.8187 18.8356C16.6179 18.7903 16.4184 18.665 16.2582 18.5279C15.9727 18.2822 15.7169 18.0008 15.4481 17.7349C15.4349 17.7218 15.4134 17.7182 15.3441 17.6872V17.6884Z" fill="#FF4F8E"/>
</svg>
