 <svg
            xmlns="http://www.w3.org/2000/svg"
            width="212"
            height="47"
            viewBox="0 0 212 47"
            fill="none"
          >
            <g clip-path="url(#clip0_113_77)">
              <path
                d="M70.7188 1.29138L57.5242 45.8833H43.8342L35.3855 21.3472L27.015 45.8833H13.2207L0 1.29138H13.7943L20.6002 24.3516L28.4753 1.29138H42.2696L50.1446 24.3516L57.0027 1.29138H70.6927H70.7188Z"
                fill="white"
              />
              <path
                d="M114.371 29.6489C114.266 32.0208 113.745 34.2609 112.806 36.3429C111.867 38.425 110.563 40.2434 108.842 41.772C107.121 43.3006 105.061 44.5392 102.61 45.4353C100.185 46.3313 97.3949 46.7794 94.2136 46.7794H89.2069C85.9213 46.7794 83.0268 46.305 80.5235 45.3562C78.0202 44.4074 75.908 43.1161 74.187 41.4557C72.4659 39.7954 71.1621 37.8715 70.3016 35.6841C69.415 33.4967 68.9978 31.1511 68.9978 28.6474V17.0251H69.076C69.1803 14.6531 69.7019 12.413 70.6406 10.3573C71.5794 8.30169 72.8832 6.50958 74.5781 4.95466C76.2731 3.39974 78.3331 2.18743 80.8104 1.29138C83.2876 0.395324 86.0778 -0.0527039 89.233 -0.0527039H94.2396C97.5252 -0.0527039 100.394 0.421678 102.871 1.37044C105.348 2.31921 107.46 3.61058 109.181 5.21821C110.902 6.82584 112.206 8.74972 113.067 10.9371C113.927 13.1246 114.371 15.4701 114.371 17.9738L114.449 29.5962H114.371V29.6489ZM94.2396 34.8407C95.0741 34.8407 95.8564 34.6826 96.6386 34.3664C97.3949 34.0501 98.0728 33.6021 98.6465 33.0223C99.2202 32.4425 99.6896 31.7836 100.055 31.0457C100.42 30.2814 100.602 29.4908 100.602 28.7001V18.0529C100.602 17.2359 100.42 16.4716 100.055 15.7337C99.6896 14.9957 99.2202 14.3632 98.6465 13.7834C98.0728 13.2036 97.3949 12.7556 96.6386 12.4394C95.8824 12.1231 95.0741 11.965 94.2396 11.965H89.2069C87.5119 11.965 86.0256 12.5711 84.7479 13.7834C83.4962 14.9958 82.8443 16.4189 82.8443 18.0529V28.7001C82.8443 29.5171 83.0268 30.3078 83.3919 31.0457C83.757 31.81 84.2263 32.4688 84.8 33.0223C85.3737 33.6021 86.0517 34.0501 86.8079 34.3664C87.5641 34.6826 88.3725 34.8407 89.2069 34.8407H94.2396Z"
                fill="white"
              />
              <path
                d="M131.816 13.2036C131.007 13.7834 130.59 14.5213 130.59 15.4438C130.59 15.8127 130.668 16.1817 130.799 16.5506C130.929 16.8933 131.216 17.2095 131.659 17.4467C132.102 17.6839 132.728 17.8947 133.51 18.0529C134.293 18.211 135.388 18.2901 136.77 18.2901H141.777C148.244 18.2901 153.198 19.3179 156.614 21.3472C160.03 23.3765 161.751 26.8553 161.751 31.7836C161.751 36.7119 160.03 40.4279 156.614 42.9052C153.198 45.4089 148.244 46.6476 141.777 46.6476H136.77C130.303 46.6476 125.349 45.3035 121.933 42.589C118.517 39.8744 116.796 36.053 116.796 31.1511H130.59C130.59 31.7572 130.642 32.2843 130.746 32.7323C130.851 33.1804 131.138 33.5757 131.555 33.9183C131.998 34.2346 132.598 34.4981 133.406 34.6562C134.188 34.8144 135.31 34.8934 136.718 34.8934H141.725C144.176 34.8934 145.845 34.6035 146.679 34.0501C147.513 33.4703 147.957 32.7323 147.957 31.8099C147.957 31.441 147.879 31.072 147.748 30.703C147.618 30.3604 147.331 30.0442 146.888 29.807C146.444 29.5698 145.818 29.359 145.01 29.2008C144.202 29.0427 143.107 28.9636 141.725 28.9636H136.718C130.277 28.9636 125.323 27.9358 121.907 25.9065C118.491 23.8772 116.77 20.3984 116.77 15.4701C116.77 10.5418 118.491 6.82582 121.907 4.34849C125.323 1.87116 130.277 0.60614 136.744 0.60614H141.751C148.218 0.60614 153.146 1.95022 156.588 4.63839C160.03 7.32655 161.725 11.148 161.725 16.129H147.931C147.931 15.5228 147.879 14.9957 147.774 14.5477C147.67 14.0997 147.383 13.7044 146.966 13.3617C146.523 13.0455 145.897 12.7819 145.088 12.6238C144.28 12.4657 143.159 12.3866 141.725 12.3866H136.718C134.267 12.3866 132.624 12.6765 131.789 13.23L131.816 13.2036Z"
                fill="white"
              />
              <path
                d="M212 38.6358V44.9872H166.679V38.6358H212Z"
                fill="white"
              />
            </g>
            <defs>
              <clipPath id="clip0_113_77">
                <rect width="212" height="46.7793" fill="white" />
              </clipPath>
            </defs>
          </svg>