<svg width="27" height="26" viewBox="0 0 27 26" fill="none" xmlns="http://www.w3.org/2000/svg">
<g id="Group">
<path id="Vector" d="M5.41397 18.94C5.91342 19.0952 6.48256 19.2156 7.00102 19.451C7.52158 19.6865 7.99041 20.036 8.51203 20.3549C9.62391 18.9579 11.1233 18.128 12.9796 17.9179C11.7115 17.7035 10.6946 17.0921 9.9882 16.0267C9.27968 14.9581 9.1139 13.7903 9.44335 12.5496C9.95124 10.6447 11.9332 9.2847 13.8919 9.50221C15.989 9.73452 17.6014 11.4134 17.7133 13.4513C17.8263 15.5083 16.4103 17.5398 14.0197 17.9189C15.8686 18.1259 17.3743 18.9516 18.5379 20.4193C19.4196 19.5788 20.465 19.1301 21.6466 18.9748C19.6076 18.5641 18.7745 16.845 18.9508 15.4692C19.1652 13.7966 20.5188 12.6214 22.1566 12.6499C23.7521 12.6774 25.0825 13.9012 25.243 15.5157C25.3908 16.9992 24.4416 18.6095 22.485 18.9643C22.7943 19.0276 23.0509 19.0709 23.3022 19.1332C25.4795 19.6728 26.9916 21.5998 26.9979 23.8373C26.9979 24.1277 27.0032 24.417 26.9969 24.7074C26.9884 25.0886 26.7868 25.2871 26.4056 25.3008C26.3443 25.3029 26.2831 25.3008 26.2208 25.3008C17.7428 25.3008 9.26595 25.3008 0.788009 25.3008C0.148125 25.3008 0.00979958 25.154 0.00240817 24.5036C-0.00603915 23.6853 -0.0102574 22.868 0.318132 22.094C1.05516 20.3634 2.36344 19.356 4.20706 19.0287C4.29048 19.0139 4.3739 18.9991 4.45837 18.9653C3.61997 18.808 2.9273 18.4152 2.40779 17.7436C1.88511 17.0668 1.6507 16.2928 1.77002 15.446C2.00654 13.7554 3.36445 12.6034 5.02118 12.652C6.59766 12.6974 7.92283 13.9508 8.0601 15.541C8.19209 17.0668 7.19319 18.6317 5.41503 18.9432L5.41397 18.94ZM8.24277 24.2238H18.7565C18.7808 21.5365 16.6025 18.9801 13.4991 18.9791C10.456 18.978 8.21743 21.4847 8.24172 24.2238H8.24277ZM16.6605 13.7238C16.6721 11.991 15.2667 10.5592 13.535 10.5402C11.7906 10.5212 10.3493 11.9361 10.3377 13.6784C10.3261 15.4111 11.7315 16.8429 13.4632 16.8619C15.2076 16.881 16.6489 15.466 16.6605 13.7238ZM7.15729 24.2301C7.16468 24.1858 7.17419 24.153 7.17525 24.1193C7.21115 23.2059 7.3991 22.3295 7.80668 21.508C7.87426 21.3718 7.84047 21.2915 7.7391 21.1912C5.77721 19.2673 2.51444 19.8016 1.36138 22.32C1.08156 22.9303 1.01504 23.5723 1.07628 24.2291H7.15835L7.15729 24.2301ZM25.9737 24.2312C25.9315 23.7951 25.941 23.3685 25.8428 22.9683C25.4911 21.5344 24.5662 20.602 23.166 20.1955C21.7226 19.7752 20.4312 20.1395 19.313 21.1384C19.1609 21.2736 19.1377 21.3834 19.219 21.5851C19.4038 22.0465 19.5653 22.5206 19.6836 23.0031C19.7797 23.3991 19.7987 23.813 19.8536 24.2322H25.9737V24.2312ZM4.90819 17.9157C6.05069 17.9136 7.00207 16.9675 7.01263 15.8219C7.02319 14.6751 6.05598 13.7037 4.90503 13.7048C3.76253 13.7069 2.81114 14.653 2.80058 15.7986C2.79002 16.9454 3.75724 17.9168 4.90819 17.9157ZM24.1987 15.8166C24.205 14.6773 23.2621 13.7227 22.1122 13.7048C20.9687 13.6868 19.993 14.6498 19.9867 15.8039C19.9803 16.9433 20.9233 17.8978 22.0731 17.9157C23.2167 17.9337 24.1924 16.9707 24.1987 15.8166Z" fill="#FF4F8E"/>
<path id="Vector_2" d="M10.6809 7.47381C10.7918 6.81808 10.8995 6.12329 11.0325 5.43484C11.0684 5.24899 11.0114 5.14551 10.8878 5.02725C10.4232 4.58482 9.97131 4.13078 9.50776 3.6873C9.32192 3.50885 9.21105 3.31033 9.29764 3.0548C9.38422 2.79716 9.59857 2.71374 9.85093 2.68101C10.4855 2.59654 11.1191 2.49728 11.7537 2.41281C11.929 2.38958 12.0251 2.31038 12.1011 2.14883C12.3714 1.56913 12.6628 0.997879 12.9395 0.420293C13.0535 0.183768 13.2014 -0.00312807 13.4875 3.96786e-05C13.761 0.00320742 13.9067 0.183769 14.0155 0.410791C14.2974 0.995768 14.5899 1.57546 14.8655 2.16255C14.9373 2.31672 15.0313 2.38852 15.196 2.41069C15.8401 2.49622 16.4821 2.59442 17.1251 2.68206C17.3669 2.7148 17.5707 2.79822 17.6594 3.04424C17.7523 3.30189 17.6457 3.50251 17.462 3.67991C17.0005 4.1255 16.5497 4.58165 16.0798 5.01775C15.9288 5.15818 15.9003 5.2944 15.9341 5.4813C16.0492 6.11168 16.1484 6.74417 16.2656 7.37349C16.3121 7.62163 16.2709 7.83387 16.066 7.98487C15.8686 8.13059 15.6532 8.10208 15.4441 7.99226C14.8539 7.68182 14.2615 7.37561 13.6755 7.05778C13.5371 6.98281 13.4326 6.97753 13.2911 7.05461C12.6977 7.37772 12.1 7.69344 11.4982 7.99965C11.0705 8.21612 10.6534 7.95953 10.6809 7.47381ZM15.9626 3.58487C15.5518 3.52574 15.1284 3.45394 14.7029 3.40537C14.3903 3.37052 14.195 3.21953 14.0672 2.93232C13.8919 2.53635 13.6871 2.15305 13.4791 1.73068C13.2816 2.13404 13.081 2.48672 12.9332 2.85946C12.7832 3.23853 12.5192 3.38953 12.1317 3.42437C11.7463 3.45922 11.3651 3.53313 10.9924 3.58804C11.2785 3.89003 11.5298 4.19836 11.8244 4.456C12.1275 4.72209 12.2035 5.01352 12.1148 5.39471C12.0261 5.77378 11.9775 6.16236 11.9036 6.59106C12.3144 6.37671 12.6882 6.20354 13.0398 5.9913C13.3481 5.80546 13.6195 5.81285 13.9247 5.99447C14.2742 6.20143 14.6427 6.3746 15.0566 6.59106C14.9763 6.12224 14.9162 5.71676 14.8349 5.31446C14.7694 4.99346 14.8327 4.74215 15.083 4.50985C15.3903 4.22476 15.6627 3.9027 15.9636 3.58382L15.9626 3.58487Z" fill="#FF4F8E"/>
<path id="Vector_3" d="M2.36026 10.1432C2.42151 9.78945 2.48697 9.36497 2.57145 8.94366C2.61263 8.7367 2.58623 8.58465 2.41623 8.43471C2.11952 8.17495 1.84815 7.88457 1.56199 7.61215C1.37932 7.43898 1.30118 7.23624 1.38354 6.99444C1.46379 6.75791 1.65914 6.66921 1.89144 6.63754C2.29163 6.58263 2.69076 6.52139 3.09096 6.46965C3.2599 6.44853 3.37184 6.38834 3.44681 6.21623C3.60414 5.85511 3.79314 5.50771 3.9642 5.15187C4.07296 4.92485 4.21973 4.74534 4.49427 4.74428C4.76775 4.74217 4.91875 4.91217 5.02856 5.14342C5.19751 5.50032 5.38652 5.84772 5.54596 6.20778C5.6241 6.38518 5.7392 6.4517 5.92081 6.47281C6.31256 6.51928 6.70219 6.58474 7.09393 6.63543C7.33785 6.6671 7.5353 6.76319 7.61978 7.00816C7.70531 7.25525 7.60289 7.4506 7.42655 7.6206C7.12878 7.90675 6.8384 8.20029 6.53641 8.48222C6.42343 8.58781 6.37697 8.68285 6.41181 8.84651C6.50051 9.25832 6.55964 9.67541 6.63144 10.0904C6.67262 10.3237 6.63144 10.5318 6.43293 10.6796C6.23442 10.8285 6.02535 10.8095 5.81417 10.6975C5.44248 10.5001 5.06341 10.3153 4.69806 10.1052C4.54707 10.0186 4.43408 10.0302 4.28942 10.1104C3.90613 10.3237 3.51966 10.5328 3.1237 10.7208C2.72245 10.9119 2.3381 10.649 2.35816 10.1421L2.36026 10.1432ZM5.35907 9.2995C5.37491 9.25093 5.92292 7.54351 5.93559 7.50339C5.16372 7.59314 4.70968 7.22568 4.52806 6.41791C4.39713 6.67555 4.30104 6.85083 4.21868 7.03245C4.10781 7.27637 3.9378 7.42419 3.66115 7.44954C3.45842 7.46854 3.25885 7.51184 3.05717 7.54457C3.03922 7.56147 3.02233 7.57836 3.00438 7.59525C3.70445 7.98489 3.847 8.5593 3.58513 9.29422C4.2039 8.79583 4.78782 8.78738 5.35907 9.2995Z" fill="#FF4F8E"/>
<path id="Vector_4" d="M20.2855 10.1358C20.3478 9.77675 20.4185 9.34277 20.5019 8.91302C20.5378 8.72612 20.5114 8.58674 20.3562 8.45053C20.0531 8.18338 19.7754 7.88878 19.483 7.61002C19.3003 7.43579 19.2253 7.23094 19.3098 6.99125C19.3921 6.75578 19.5896 6.67025 19.8219 6.63857C20.2221 6.58472 20.6212 6.52137 21.0214 6.47068C21.1925 6.44957 21.2991 6.38093 21.3741 6.21304C21.5409 5.83608 21.7373 5.47285 21.9179 5.10222C22.0224 4.88787 22.1777 4.74532 22.4247 4.74426C22.6729 4.74426 22.8292 4.88787 22.9326 5.10116C23.1174 5.47918 23.3117 5.85297 23.4859 6.23627C23.5525 6.38304 23.6454 6.4464 23.7995 6.46646C24.1997 6.51714 24.5989 6.58472 24.9991 6.63435C25.2535 6.66603 25.4616 6.75789 25.5481 7.01448C25.6368 7.27529 25.5133 7.47064 25.3306 7.64486C25.0318 7.92996 24.7309 8.21294 24.4468 8.51282C24.3771 8.58568 24.3328 8.72612 24.3465 8.82537C24.4014 9.24246 24.4806 9.65638 24.5556 10.0714C24.5999 10.3142 24.5651 10.5296 24.3571 10.6848C24.1459 10.8422 23.9305 10.802 23.714 10.687C23.3497 10.4927 22.9801 10.3089 22.6211 10.1062C22.4828 10.0281 22.3772 10.0238 22.2368 10.102C21.8545 10.3163 21.466 10.5222 21.0711 10.7134C20.655 10.915 20.2643 10.6584 20.2876 10.1368L20.2855 10.1358ZM20.9359 7.54666C21.6127 7.98276 21.7901 8.54873 21.4998 9.29526C22.1217 8.79687 22.7141 8.78419 23.3033 9.3111C23.2811 8.92569 23.1744 8.57723 23.2684 8.29425C23.3613 8.01232 23.6538 7.79691 23.8988 7.50443C23.1069 7.58256 22.6296 7.23622 22.4258 6.46224C22.2188 7.23411 21.7384 7.58045 20.9369 7.54561L20.9359 7.54666Z" fill="#FF4F8E"/>
</g>
</svg>
