<svg width="26" height="26" viewBox="0 0 26 26" fill="none" xmlns="http://www.w3.org/2000/svg">
<path id="Vector" d="M10.6873 15.7156C12.3586 14.8873 13.791 15.567 14.5088 16.4115C15.2062 17.2316 15.6576 18.7334 14.6237 20.2189C15.0893 20.5994 15.5539 20.9789 15.9921 21.3371C16.4272 20.981 16.8867 20.6055 17.3655 20.2148C16.8369 19.469 16.6183 18.6123 16.844 17.665C17.0067 16.9813 17.3696 16.4227 17.9196 15.9903C19.0409 15.1092 20.5893 15.1142 21.6974 16.0035C22.346 16.5244 22.7283 17.2082 22.8218 18.0354C22.9143 18.8504 22.6866 19.5891 22.2179 20.2301C22.5615 20.4946 22.9102 20.7205 23.2071 21.0013C23.9777 21.7288 24.3386 22.6476 24.364 23.6996C24.3762 24.1982 24.3711 24.6978 24.365 25.1973C24.3589 25.6786 24.0489 25.9869 23.569 25.9991C23.5019 26.0011 23.4338 25.9991 23.3657 25.9991C15.9158 25.9991 8.46694 25.9991 1.01706 25.9991C0.253568 25.9991 -0.00567345 25.7498 0.0116093 24.9776C0.0268588 24.2775 0.00652614 23.5663 0.126489 22.8816C0.315582 21.802 0.962161 20.9993 1.89848 20.4325C1.97066 20.3888 2.04487 20.3491 2.11705 20.3054C2.13027 20.2972 2.1384 20.2809 2.12214 20.3003C1.95033 19.879 1.7592 19.4853 1.62805 19.0732C1.46438 18.5584 1.27122 18.2134 0.856431 17.8665C0.321682 17.4198 0.0197424 16.8439 0.0156758 16.147C0.00449288 14.0317 -0.0168564 11.9153 0.0238089 9.80001C0.0604077 7.89125 1.7104 6.26635 3.6176 6.20327C4.45429 6.1758 5.292 6.19513 6.12869 6.1931C6.2212 6.1931 6.31371 6.1931 6.41131 6.17783C5.55226 5.99978 4.86806 5.55514 4.37703 4.83478C3.88803 4.11848 3.71825 3.32689 3.86871 2.46815C4.12287 1.01826 5.47397 -0.0500788 6.99181 0.00181203C8.49541 0.0537028 9.75908 1.25838 9.89429 2.78153C10.0204 4.20598 9.10843 5.79934 7.31611 6.16868C7.31611 6.19004 7.31611 6.21141 7.31611 6.23176H10.6659C10.6659 6.03132 10.6629 5.77288 10.6659 5.51343C10.673 4.87039 10.6354 4.22328 10.7025 3.58635C10.8326 2.35216 11.8015 1.52394 13.055 1.52191C15.2194 1.51784 17.3838 1.52089 19.5492 1.52089C20.8688 1.52089 22.1874 1.51682 23.507 1.52191C24.7514 1.52699 25.7548 2.35826 25.9642 3.55277C25.9916 3.70946 25.9906 3.87327 25.9906 4.03301C25.9916 6.46171 25.9703 8.8904 25.9998 11.3191C26.0181 12.7751 24.8967 13.817 23.508 13.8139C20.9034 13.8078 18.2998 13.8139 15.6952 13.8078C15.4919 13.8078 15.3567 13.8739 15.2113 14.0103C14.8168 14.3766 14.4407 14.7866 13.9852 15.0583C13.0387 15.623 11.7913 15.3157 11.1325 14.4275C10.9872 14.2311 10.854 14.0245 10.6893 13.7854V15.7156H10.6873ZM16.9751 12.2755C17.0443 12.2806 17.0829 12.2867 17.1215 12.2867C19.2687 12.2867 21.4158 12.2898 23.5619 12.2847C24.1261 12.2836 24.4647 11.9235 24.4647 11.3547C24.4647 8.92703 24.4647 6.49935 24.4647 4.07066C24.4647 3.38692 24.1231 3.04505 23.4368 3.04505C19.9966 3.04505 16.5563 3.04505 13.116 3.04505C12.4979 3.04505 12.1888 3.35843 12.1878 3.98519C12.1868 4.78085 12.1868 5.57549 12.1878 6.37115C12.1878 6.84427 12.0953 7.34792 12.2254 7.7834C12.3525 8.20971 12.7083 8.56786 12.9666 8.9545C13.0764 9.11933 13.1902 9.28009 13.3153 9.46221C13.6558 9.11729 13.9588 8.7856 14.2882 8.48341C14.5037 8.28602 14.7416 8.09983 14.9978 7.96145C15.8924 7.47917 17.0798 7.73761 17.7274 8.53225C18.4269 9.38997 18.4604 10.5713 17.7935 11.3832C17.5444 11.6864 17.2628 11.9621 16.9741 12.2745L16.9751 12.2755ZM8.40594 21.3564C8.57064 21.1987 8.74956 21.0074 8.95086 20.8426C9.0942 20.7246 9.14808 20.6004 9.14808 20.4122C9.14198 17.4259 9.143 14.4386 9.14503 11.4524C9.14503 11.3262 9.14808 11.198 9.17045 11.0739C9.22636 10.7697 9.41647 10.5814 9.71028 10.5C10.062 10.4024 10.3579 10.5336 10.608 10.907C11.1681 11.7424 11.7202 12.5838 12.2834 13.4171C12.5914 13.8739 13.0997 13.9594 13.4749 13.5911C14.5078 12.5787 15.5254 11.5511 16.5431 10.5234C16.7322 10.3321 16.7993 10.089 16.7271 9.82036C16.5685 9.22718 15.8833 9.05625 15.4238 9.50393C14.8605 10.0523 14.3136 10.6181 13.7504 11.1675C13.3569 11.5521 12.8507 11.4992 12.5335 11.0505C12.3627 10.8093 12.2031 10.5601 12.0384 10.3138C11.5748 9.61687 11.1122 8.91991 10.6486 8.22294C10.4646 7.94619 10.2562 7.71828 9.88311 7.7193C7.86306 7.72337 5.842 7.70708 3.82195 7.72743C2.5969 7.73964 1.70837 8.57295 1.55282 9.79289C1.53859 9.90176 1.53351 10.0116 1.53351 10.1215C1.53249 12.0679 1.53351 14.0133 1.53147 15.9598C1.53147 16.3128 1.62602 16.6038 1.92999 16.7524C2.24922 16.4502 2.53286 16.15 2.85106 15.8936C3.00254 15.7725 3.05744 15.6647 3.05744 15.4775C3.05134 13.8271 3.05337 12.1778 3.05337 10.5275C3.05337 10.3332 3.04422 10.1378 3.05947 9.94348C3.09099 9.54158 3.42851 9.23837 3.82398 9.24346C4.20928 9.24753 4.53257 9.54463 4.5712 9.93534C4.58035 10.0279 4.57629 10.1215 4.5773 10.2141C4.5773 11.8299 4.5773 13.4466 4.5773 15.0623C4.5773 15.1509 4.5773 15.2394 4.5773 15.3228C5.83488 15.4052 6.76916 15.9516 7.31001 17.0607C7.85594 18.1799 7.67498 19.2574 7.01417 20.2189C7.48996 20.6086 7.94439 20.9799 8.40594 21.3574V21.3564ZM7.61602 24.4648C7.61602 24.1748 7.62923 23.9123 7.61399 23.6518C7.5418 22.4532 6.75086 21.5762 5.55835 21.4622C4.89856 21.3991 4.22657 21.451 3.55966 21.4581C3.45189 21.4592 3.3421 21.4856 3.23738 21.5161C1.8934 21.9007 1.3617 23.0871 1.56807 24.4648H7.61602ZM15.2245 24.4658C15.2245 24.1605 15.2438 23.8807 15.2214 23.605C15.1218 22.384 14.2953 21.5375 13.0733 21.447C12.4857 21.4032 11.8899 21.4164 11.3013 21.45C11.0136 21.4663 10.7106 21.5416 10.4524 21.6677C9.33819 22.2121 9.01897 23.2418 9.1796 24.4668H15.2255L15.2245 24.4658ZM22.8289 24.4627C22.8289 24.1443 22.8564 23.839 22.8238 23.5399C22.6967 22.3545 21.9068 21.5518 20.7204 21.451C20.1084 21.3991 19.4883 21.4276 18.8722 21.448C18.433 21.4622 18.0334 21.623 17.6797 21.8895C16.8104 22.5438 16.6874 23.4595 16.7728 24.4637H22.8289V24.4627ZM5.3408 3.03691C5.33266 3.88955 6.05142 4.66283 6.85558 4.6669C7.64753 4.67097 8.36223 3.92211 8.37951 3.07151C8.39578 2.23719 7.70243 1.52801 6.86473 1.52496C6.03821 1.52191 5.34791 2.20666 5.3408 3.03691ZM4.57629 19.9024C5.40383 19.9024 6.09615 19.2116 6.09615 18.3823C6.09615 17.5541 5.40586 16.8612 4.5773 16.8612C3.74977 16.8612 3.05744 17.5521 3.05744 18.3813C3.05744 19.2095 3.74773 19.9024 4.57629 19.9024ZM13.7077 18.3864C13.7107 17.5582 13.0215 16.8653 12.1919 16.8622C11.3643 16.8592 10.672 17.549 10.669 18.3793C10.6659 19.2075 11.3552 19.9004 12.1848 19.9035C13.0123 19.9065 13.7046 19.2167 13.7077 18.3864ZM19.7963 16.8612C18.9677 16.8633 18.2774 17.5551 18.2795 18.3844C18.2815 19.2136 18.9728 19.9045 19.8014 19.9024C20.6299 19.9004 21.3202 19.2085 21.3182 18.3793C21.3162 17.5501 20.6248 16.8592 19.7963 16.8612Z" fill="#FF4F8E"/>
</svg>
