<svg width="32" height="32" viewBox="0 0 32 32" fill="none" xmlns="http://www.w3.org/2000/svg">
<g id="Capa_1" clip-path="url(#clip0_1_69)">
<path id="Vector" d="M23.9918 31.9999C22.4436 31.8597 21.104 31.5046 19.7964 31.0227C16.6853 29.8759 13.9232 28.1336 11.3683 26.0482C7.78388 23.1218 4.79044 19.688 2.52698 15.6441C1.35447 13.5508 0.474753 11.3439 0.0589602 8.96484C-0.0667135 8.24258 -0.0092244 7.59774 0.391862 6.96226C1.86519 4.6259 3.55911 2.4818 5.6862 0.700835C5.82257 0.587355 5.97498 0.492566 6.11937 0.389766C6.97101 -0.21902 7.67559 -0.0788391 8.52322 0.563324C8.67162 0.675469 8.80398 0.82099 8.91093 0.973186C10.3027 2.9424 11.6437 4.94498 12.6905 7.1238C12.8964 7.55102 13.0475 8.00761 13.1945 8.46019C13.3884 9.05563 13.2734 9.62036 12.863 10.081C12.4806 10.5108 12.0448 10.894 11.6209 11.2852C11.3268 11.5562 11.022 11.8179 10.7078 12.0648C10.534 12.201 10.4872 12.3225 10.5701 12.5428C12.1785 16.815 15.1238 19.7521 19.3873 21.3822C19.636 21.477 19.779 21.4316 19.9488 21.2273C20.4448 20.6279 20.9609 20.0458 21.4823 19.4677C22.1695 18.7054 23.0078 18.4624 23.9503 18.9097C25.1215 19.4651 26.2953 20.0298 27.413 20.684C28.6003 21.3795 29.7246 22.1819 30.8731 22.9442C31.3597 23.2673 31.7033 23.7025 31.8959 24.2619C32.0509 24.7105 32.0443 25.1391 31.7849 25.5382C31.5429 25.9094 31.3049 26.2912 31.0095 26.6183C29.1979 28.6316 27.1216 30.3284 24.7726 31.6835C24.4918 31.8451 24.1669 31.9305 23.9904 31.9999H23.9918ZM7.1876 2.18141C7.08198 2.26552 7.03652 2.29623 6.99642 2.33361C5.26506 3.91565 3.75831 5.68728 2.43473 7.62177C2.16333 8.01695 2.11787 8.38009 2.20343 8.82733C2.5711 10.7538 3.26765 12.5615 4.21154 14.269C7.23038 19.7307 11.4565 24.039 16.8043 27.2445C18.9033 28.5021 21.1347 29.454 23.584 29.8051C23.7404 29.8278 23.9396 29.7811 24.0733 29.6956C25.6429 28.693 27.0908 27.5355 28.4278 26.2405C28.8957 25.7879 29.3396 25.31 29.8008 24.836C29.7193 24.7599 29.6752 24.7092 29.6217 24.6705C27.6363 23.2126 25.5279 21.9656 23.2912 20.9323C23.2083 20.8936 23.0292 20.9376 22.965 21.0084C22.6334 21.3675 22.338 21.76 22.0037 22.1165C21.5184 22.6332 21.0211 23.1418 20.5023 23.6251C20.3914 23.7292 20.1547 23.768 19.9956 23.7386C18.287 23.4168 16.7535 22.6639 15.3109 21.728C11.9779 19.5639 9.63556 16.6134 8.43364 12.8151C8.03256 11.5482 7.95902 11.8072 8.94971 10.8032C9.55668 10.1878 10.2412 9.64839 10.899 9.085C11.0741 8.93414 11.1249 8.80864 11.0006 8.58435C10.2947 7.31471 9.63556 6.01837 8.90158 4.76475C8.38685 3.88628 7.77853 3.06389 7.18894 2.18275L7.1876 2.18141Z" fill="white"/>
</g>
<defs>
<clipPath id="clip0_1_69">
<rect width="32" height="32" fill="white"/>
</clipPath>
</defs>
</svg>
