<svg width="24" height="26" viewBox="0 0 24 26" fill="none" xmlns="http://www.w3.org/2000/svg">
<g id="Group">
<path id="Vector" d="M17.7466 23.0282C17.2539 22.9597 16.5281 22.8666 15.8043 22.754C15.4713 22.7021 15.201 22.7775 14.96 23.0185C14.5222 23.4563 14.0716 23.8814 13.6269 24.3114C12.6298 25.2752 11.3692 25.2722 10.3682 24.3035C9.92353 23.8726 9.47297 23.4475 9.03417 23.0106C8.80007 22.7775 8.53562 22.7001 8.21141 22.752C7.59238 22.851 6.97237 22.9391 6.35041 23.0204C4.99481 23.1967 4.0026 22.466 3.75283 21.1104C3.64215 20.51 3.53832 19.9086 3.44331 19.3062C3.38944 18.9664 3.22881 18.7264 2.91538 18.5687C2.37079 18.2944 1.83599 17.9996 1.29728 17.7126C0.0582431 17.0525 -0.325713 15.8595 0.292337 14.593C0.556796 14.0523 0.814399 13.5077 1.08865 12.972C1.24635 12.6634 1.24831 12.3745 1.09061 12.065C0.802647 11.4998 0.524474 10.9288 0.253159 10.3558C-0.306123 9.17256 0.0797924 7.98544 1.22774 7.35759C1.77037 7.06081 2.31496 6.76697 2.86836 6.49173C3.21412 6.32032 3.39434 6.06468 3.45017 5.68268C3.54126 5.06267 3.64998 4.44561 3.77536 3.83148C4.04275 2.52191 5.07316 1.81669 6.39644 2.01553C7.01645 2.10858 7.63646 2.19477 8.25646 2.28684C8.55227 2.33091 8.7991 2.24864 9.01262 2.03805C9.47102 1.58651 9.93529 1.14085 10.3996 0.695188C11.3673 -0.234335 12.6357 -0.231396 13.6054 0.702045C14.051 1.13106 14.5026 1.55615 14.9385 1.99496C15.1912 2.24962 15.4713 2.33483 15.8239 2.27509C16.4341 2.17322 17.0463 2.08604 17.6604 2.01063C19.019 1.84411 20.0072 2.58166 20.2502 3.9353C20.3579 4.53572 20.4627 5.13712 20.5587 5.73949C20.6116 6.06958 20.7712 6.30466 21.0749 6.45843C21.6332 6.7415 22.1846 7.04024 22.7361 7.33702C23.9232 7.97368 24.315 9.17158 23.7322 10.3852C23.4609 10.9503 23.1876 11.5135 22.9045 12.0728C22.7517 12.3735 22.7508 12.6566 22.9045 12.9582C23.1915 13.5244 23.4687 14.0954 23.742 14.6684C24.3101 15.8614 23.9212 17.0534 22.7606 17.6832C22.2169 17.9781 21.6733 18.2729 21.1199 18.5481C20.782 18.7166 20.6106 18.9683 20.5509 19.3386C20.4353 20.0526 20.3236 20.7706 20.1532 21.4728C19.9152 22.4504 18.9896 23.0939 17.7447 23.0292L17.7466 23.0282ZM17.9905 21.606C18.4205 21.6188 18.7202 21.3886 18.7947 20.9958C18.9004 20.4444 19.0209 19.8939 19.0836 19.3366C19.1982 18.316 19.6889 17.5961 20.6312 17.1671C21.1268 16.9418 21.5989 16.6646 22.0788 16.407C22.5627 16.1474 22.6793 15.7821 22.4393 15.2855C22.167 14.7213 21.8976 14.1552 21.6136 13.5969C21.2473 12.8769 21.2433 12.1649 21.6087 11.443C21.8878 10.8915 22.1533 10.3323 22.4236 9.77592C22.6861 9.23525 22.5735 8.88655 22.0465 8.60446C21.4941 8.30964 20.9417 8.01286 20.3853 7.72392C19.6664 7.35074 19.2619 6.76403 19.1365 5.96673C19.0366 5.33203 18.9191 4.69929 18.8005 4.06753C18.7124 3.5964 18.3725 3.36426 17.8945 3.43283C17.2745 3.52196 16.6525 3.60522 16.0345 3.70414C15.2098 3.83539 14.5094 3.61305 13.9198 3.01753C13.4957 2.5895 13.0549 2.17714 12.621 1.75792C12.1793 1.33087 11.8198 1.33381 11.3722 1.76674C10.9265 2.19673 10.4809 2.62574 10.0372 3.05867C9.51019 3.57289 8.89019 3.81874 8.15068 3.71981C7.48072 3.63068 6.81173 3.53665 6.14373 3.4387C5.62363 3.36231 5.29355 3.58367 5.19462 4.10475C5.09471 4.63269 4.97718 5.15867 4.91841 5.6915C4.80577 6.71212 4.31407 7.43301 3.37181 7.86202C2.8762 8.0873 2.40409 8.36449 1.92415 8.62209C1.44028 8.88166 1.32275 9.247 1.56272 9.7436C1.82522 10.2852 2.07988 10.8318 2.35903 11.3646C2.7665 12.1404 2.76258 12.9005 2.35316 13.6742C2.07988 14.1914 1.83501 14.7252 1.57937 15.2522C1.31687 15.7928 1.42853 16.1425 1.95549 16.4236C2.50792 16.7185 3.06034 17.0152 3.61668 17.3042C4.33562 17.6764 4.74014 18.2641 4.86552 19.0614C4.96346 19.6804 5.07611 20.2965 5.19266 20.9126C5.29453 21.4532 5.61873 21.6707 6.15548 21.5884C6.77549 21.4944 7.39648 21.4111 8.01649 21.32C8.83435 21.1986 9.51999 21.4474 10.1008 22.0302C10.5269 22.4572 10.9657 22.8705 11.3996 23.2888C11.811 23.6845 12.1881 23.6874 12.5955 23.2956C13.0295 22.8774 13.4722 22.467 13.8934 22.036C14.5143 21.4004 15.249 21.1839 16.1197 21.3377C16.7524 21.4493 17.392 21.5218 17.9915 21.606H17.9905Z" fill="#FF4F8E"/>
<path id="Vector_2" d="M7.24065 17.9967C6.94583 17.9927 6.72349 17.8585 6.59322 17.596C6.46785 17.3433 6.49136 17.0887 6.65689 16.8575C6.7137 16.7792 6.7852 16.7106 6.85474 16.6411C9.94107 13.5528 13.0284 10.4655 16.1157 7.37815C16.5222 6.97167 16.9443 6.91975 17.2676 7.23711C17.5967 7.56033 17.5467 7.99032 17.1304 8.4066C14.0431 11.4939 10.9568 14.5812 7.87046 17.6695C7.69415 17.8458 7.51295 18.0065 7.24163 17.9967H7.24065Z" fill="#FF4F8E"/>
<path id="Vector_3" d="M9.11742 11.3079C7.65897 11.3108 6.47674 10.1335 6.47185 8.67306C6.46695 7.22049 7.64918 6.02455 9.09881 6.01573C10.5553 6.00692 11.76 7.20776 11.7591 8.66718C11.7591 10.1227 10.5749 11.3049 9.11742 11.3079ZM9.11251 7.47124C8.45137 7.47222 7.91853 8.00113 7.91363 8.6613C7.90874 9.30874 8.45235 9.86018 9.1037 9.86802C9.76093 9.87683 10.3182 9.31853 10.3124 8.65739C10.3055 7.99428 9.77562 7.46928 9.11349 7.47124H9.11251Z" fill="#FF4F8E"/>
<path id="Vector_4" d="M17.5301 16.3835C17.5233 17.8321 16.3244 19.0212 14.8767 19.0143C13.4193 19.0065 12.2331 17.8008 12.2439 16.3364C12.2547 14.8868 13.4565 13.7105 14.912 13.7242C16.3753 13.7379 17.537 14.9182 17.5301 16.3835ZM14.8905 17.5588C15.5536 17.5569 16.0844 17.0289 16.0884 16.3678C16.0923 15.7184 15.5516 15.1718 14.8973 15.163C14.2391 15.1542 13.6828 15.7125 13.6896 16.3737C13.6975 17.0377 14.2274 17.5608 14.8905 17.5588Z" fill="#FF4F8E"/>
</g>
</svg>
