<svg width="25" height="25" viewBox="0 0 25 25" fill="none" xmlns="http://www.w3.org/2000/svg">
<g id="Group">
<path id="Vector" d="M12.4902 24.9793C10.6859 24.9793 8.88163 24.9822 7.07735 24.9793C4.63127 24.9744 2.67265 23.9916 1.2474 22.0027C0.409246 20.8344 0.0194761 19.5039 0.0175223 18.0679C0.0116611 14.3539 -0.0244829 10.6398 0.0282679 6.9277C0.0702733 3.95802 1.51995 1.83333 4.20438 0.572196C5.07379 0.163865 6.01549 0.0124494 6.97673 0.0124494C10.6585 0.0124494 14.3404 -0.0217394 18.0212 0.0231965C21.0007 0.0593406 23.141 1.48654 24.4148 4.17879C24.8261 5.04821 24.9853 5.98698 24.9853 6.94822C24.9873 10.6457 25.0234 14.3431 24.9746 18.0406C24.9355 21.021 23.4917 23.1545 20.7975 24.4195C19.9124 24.8357 18.9551 24.9822 17.9763 24.9802C16.1476 24.9773 14.3189 24.9802 12.4912 24.9802L12.4902 24.9793ZM12.5166 2.22603C10.7045 2.22603 8.89237 2.22603 7.08126 2.22603C6.35056 2.22603 5.63549 2.32568 4.97611 2.65195C3.15522 3.5536 2.24185 5.03746 2.23599 7.06153C2.22524 10.6847 2.22231 14.3089 2.24381 17.9321C2.24674 18.4831 2.32293 19.0604 2.49877 19.5801C3.16988 21.568 4.89112 22.7569 7.03828 22.7608C10.6781 22.7676 14.3189 22.7725 17.9587 22.752C18.5018 22.7491 19.0704 22.6729 19.5832 22.5C21.5721 21.8298 22.7649 20.1096 22.7698 17.9644C22.7776 14.3167 22.7756 10.6691 22.7698 7.0205C22.7678 5.38425 22.1192 4.06157 20.7916 3.09252C19.9417 2.4722 18.9727 2.2231 17.9294 2.22506C16.1261 2.22896 14.3218 2.22506 12.5185 2.22506L12.5166 2.22603Z" fill="url(#paint0_linear_1_65)"/>
<path id="Vector_2" d="M18.9369 12.4851C18.9496 16.0135 16.0443 18.9246 12.5061 18.9305C8.97377 18.9353 6.06466 16.0282 6.06661 12.4939C6.06857 8.96543 8.9474 6.08073 12.4856 6.06119C16.0111 6.04166 18.9251 8.94296 18.9378 12.4861L18.9369 12.4851ZM12.5003 16.7081C14.8252 16.7091 16.7213 14.811 16.7145 12.49C16.7067 10.167 14.8428 8.30018 12.5139 8.28259C10.1978 8.26501 8.29778 10.1562 8.28801 12.489C8.27922 14.8091 10.1734 16.7071 12.5003 16.7081Z" fill="url(#paint1_linear_1_65)"/>
<path id="Vector_3" d="M19.2045 7.42887C18.3214 7.42887 17.5917 6.70599 17.579 5.81997C17.5673 4.93395 18.3107 4.1886 19.2055 4.18958C20.1003 4.18958 20.8457 4.93786 20.83 5.82094C20.8154 6.70892 20.0866 7.42887 19.2035 7.42789L19.2045 7.42887Z" fill="url(#paint2_linear_1_65)"/>
</g>
<defs>
<linearGradient id="paint0_linear_1_65" x1="-12" y1="0.500001" x2="30.5" y2="6" gradientUnits="userSpaceOnUse">
<stop stop-color="#E5322B"/>
<stop offset="0.555" stop-color="#EF8C34"/>
<stop offset="1" stop-color="#C92AA7"/>
</linearGradient>
<linearGradient id="paint1_linear_1_65" x1="-0.111573" y1="6.31868" x2="21.77" y2="9.14862" gradientUnits="userSpaceOnUse">
<stop stop-color="#E5322B"/>
<stop offset="0.555" stop-color="#EF8C34"/>
<stop offset="1" stop-color="#C92AA7"/>
</linearGradient>
<linearGradient id="paint2_linear_1_65" x1="16.0182" y1="4.25441" x2="21.545" y2="4.97176" gradientUnits="userSpaceOnUse">
<stop stop-color="#E5322B"/>
<stop offset="0.555" stop-color="#EF8C34"/>
<stop offset="1" stop-color="#C92AA7"/>
</linearGradient>
</defs>
</svg>
