<svg width="37" height="37" viewBox="0 0 37 37" fill="none" xmlns="http://www.w3.org/2000/svg">
<g id="Group">
<path id="Vector" d="M0 36.2226C0.304184 35.1074 0.594747 34.0452 0.885311 32.9815C1.40893 31.0659 1.93709 29.1518 2.44709 27.2332C2.49249 27.0622 2.4713 26.8276 2.38807 26.6733C-1.28181 19.8991 -0.438872 11.8857 4.64296 6.09802C7.7635 2.54069 11.7239 0.504046 16.4456 0.0773488C24.3619 -0.63684 31.6518 3.64073 34.6512 11.0035C37.3798 17.7006 36.3568 23.9996 31.7592 29.5997C28.9625 33.0057 25.276 35.0106 20.9236 35.7081C17.0555 36.3285 13.3599 35.7126 9.86857 33.9226C9.62794 33.8001 9.42062 33.7683 9.15578 33.8379C6.24106 34.6111 3.32332 35.3737 0.405578 36.1363C0.28905 36.1666 0.169495 36.1862 0 36.221L0 36.2226ZM4.31305 31.9737C6.06703 31.5138 7.74685 31.084 9.41759 30.6225C9.80198 30.5166 10.0941 30.5665 10.4376 30.7632C15.076 33.4067 19.8643 33.6896 24.6661 31.3488C30.7574 28.3786 33.9006 22.0613 32.808 15.3416C31.7093 8.58709 25.6347 3.25186 18.7958 3.03397C15.023 2.91292 11.6286 3.97664 8.71237 6.37946C5.18626 9.28463 3.3324 13.0553 3.19469 17.6325C3.10237 20.7011 3.93623 23.5245 5.59638 26.1014C5.7583 26.3525 5.8143 26.5734 5.71139 26.8685C5.55552 27.3194 5.45109 27.787 5.32549 28.2469C4.99255 29.468 4.66112 30.6891 4.31154 31.9737H4.31305Z" fill="#26D366"/>
<path id="Vector_2" d="M12.3656 9.66615C13.089 9.47852 13.4522 9.96877 13.7216 10.6678C14.1226 11.7104 14.5645 12.7393 15.0064 13.7667C15.1608 14.1268 15.1592 14.4461 14.9247 14.7593C14.563 15.242 14.2134 15.7352 13.832 16.2028C13.5869 16.5024 13.5793 16.7702 13.7715 17.0955C15.2364 19.5604 17.2794 21.3443 19.949 22.4081C20.3152 22.5533 20.6058 22.4943 20.8525 22.1856C21.2777 21.656 21.7151 21.1355 22.1328 20.6014C22.5172 20.1081 22.7154 20.0234 23.2875 20.2821C24.2605 20.724 25.2185 21.1961 26.1825 21.6545C26.2733 21.6984 26.3641 21.7408 26.4534 21.7862C27.2645 22.1841 27.3221 22.2931 27.1964 23.1949C26.9543 24.938 25.5227 26.2892 23.7551 26.5358C22.4082 26.725 21.1703 26.3921 19.9202 25.9654C16.2988 24.7307 13.5914 22.3279 11.3365 19.3334C10.4406 18.1441 9.59616 16.9245 9.20571 15.4583C8.70479 13.573 9.02865 11.8723 10.371 10.4076C10.9627 9.76298 11.2291 9.65101 12.3641 9.66766L12.3656 9.66615Z" fill="#26D366"/>
</g>
</svg>
