<svg width="36" height="36" viewBox="0 0 36 36" fill="none" xmlns="http://www.w3.org/2000/svg">
<g id="Group">
<path id="Vector" d="M17.5631 0.720459C23.0931 0.824189 27.5636 2.42572 31.2105 5.99341C34.5492 9.26091 36.2359 13.2498 35.9734 17.9522C35.7502 21.9537 34.0855 25.3407 31.2278 28.1162C27.518 31.7201 23.0051 33.3687 17.8649 33.3766C15.7412 33.3798 13.6789 33.0167 11.6637 32.3503C11.4923 32.2937 11.2487 32.322 11.0836 32.4037C9.41738 33.2194 7.75901 34.0509 6.10064 34.8823C5.61491 35.1259 5.1402 35.1369 4.69691 34.8084C4.25206 34.4784 4.12473 34.0178 4.21433 33.4851C4.25049 33.2666 4.28193 33.0466 4.31336 32.8265C4.50514 31.4545 4.68905 30.0824 4.89655 28.7135C4.94528 28.3928 4.84781 28.1901 4.6246 27.9638C2.33746 25.6566 0.815843 22.9329 0.249952 19.7172C-0.468416 15.6325 0.36313 11.8526 2.72573 8.46093C5.65107 4.26143 9.75378 1.88192 14.7619 1.02693C15.8403 0.843046 16.9422 0.786469 17.5662 0.720459H17.5631ZM7.02807 31.5849C7.18212 31.5158 7.28586 31.4749 7.38647 31.4246C8.45066 30.8949 9.51799 30.3732 10.5759 29.8294C11.0113 29.6046 11.431 29.5685 11.8932 29.7445C14.6629 30.8006 17.5222 31.1166 20.4507 30.6891C24.4135 30.1107 27.8041 28.4133 30.3994 25.3249C33.015 22.2146 34.0242 18.6249 33.2367 14.6109C32.5466 11.0903 30.5911 8.3572 27.6988 6.30617C23.9183 3.62333 19.6836 2.75734 15.1407 3.50232C11.1921 4.14984 7.82975 5.94626 5.34611 9.13047C2.40505 12.9025 1.72284 17.0941 3.38908 21.6064C4.13102 23.6181 5.38069 25.3014 6.96676 26.7332C7.41319 27.1355 7.60025 27.5866 7.50122 28.1948C7.32202 29.2997 7.1884 30.4124 7.02807 31.5818V31.5849Z" fill="#0085FF"/>
<path id="Vector_2" d="M20.6589 21.127C20.4907 21.061 20.1606 20.973 19.8698 20.8127C18.7946 20.2186 17.7335 19.6009 16.6678 18.9927C15.8064 18.5008 15.2106 18.5448 14.4294 19.153C13.1294 20.1636 11.8278 21.1742 10.5278 22.1848C10.4241 22.2649 10.3235 22.3938 10.2103 22.4048C10.0201 22.4236 9.76075 22.4331 9.64285 22.3246C9.5281 22.2193 9.52968 21.96 9.53125 21.7683C9.53125 21.6677 9.63814 21.5655 9.70102 21.4665C11.2839 19.0053 12.8669 16.5425 14.4514 14.0828C15.1383 13.0156 16.061 12.8349 17.1221 13.5453C17.9253 14.0828 18.738 14.6077 19.5349 15.1562C20.1999 15.612 20.8601 15.6293 21.558 15.2364C23.0388 14.4034 24.5258 13.5846 26.0097 12.7579C26.2926 12.5991 26.5819 12.431 26.8554 12.7422C27.1069 13.0282 26.9481 13.2954 26.7736 13.5579C25.285 15.7849 23.7964 18.0104 22.3157 20.2422C21.9573 20.7828 21.4841 21.094 20.662 21.1286L20.6589 21.127Z" fill="#0085FF"/>
</g>
</svg>
