<svg width="28" height="25" viewBox="0 0 28 25" fill="none" xmlns="http://www.w3.org/2000/svg">
<g id="Group">
<path id="Vector" d="M23.026 13.4362C23.7398 13.7045 24.435 13.8862 25.0557 14.2113C28.2425 15.8808 28.988 20.2095 26.573 22.8752C24.5532 25.1052 21.3674 25.415 18.9426 23.6273C18.8232 23.5397 18.647 23.4883 18.4959 23.4883C13.6396 23.4806 8.78438 23.4828 3.92806 23.4817C2.43481 23.4817 1.26671 22.8861 0.502573 21.579C0.155537 20.9856 8.68874e-05 20.3354 0.00118164 19.6479C0.00337114 18.3998 0.00118164 17.1529 0.00118164 15.9049C0.00118164 11.8883 -0.00210155 7.87271 0.00227746 3.85606C0.00446697 1.92711 1.23496 0.420727 3.09057 0.073691C3.36645 0.0222377 3.65217 0.00362693 3.93352 0.00362693C8.99018 -0.000752074 14.0458 -0.000750871 19.1024 0.00143863C21.0423 0.00143863 22.4874 1.11042 22.9242 2.94413C23.0008 3.26708 23.0194 3.61084 23.0205 3.94473C23.0271 7.02318 23.0249 10.1005 23.0249 13.179V13.4362H23.026ZM10.7089 14.1632C10.7976 14.0624 10.8655 13.977 10.9421 13.8993C12.7868 12.047 14.6314 10.1958 16.4772 8.34454C16.9928 7.82782 17.3147 7.83001 17.8391 8.3533C19.0115 9.52469 20.184 10.6972 21.3565 11.8686C21.4233 11.9353 21.4966 11.9955 21.6072 12.0963C21.6072 11.9594 21.6072 11.8795 21.6072 11.8007C21.6072 9.17765 21.6105 6.55572 21.6061 3.93269C21.6039 2.45368 20.5989 1.45417 19.1112 1.45417C14.0468 1.45089 8.98142 1.45089 3.9171 1.45417C2.40634 1.45417 1.42436 2.44821 1.42326 3.95897C1.42326 7.31876 1.42326 10.6786 1.42326 14.0394V14.2978C1.45282 14.3164 1.48347 14.3361 1.51303 14.3547C1.56777 14.2726 1.61156 14.1796 1.67943 14.1106C2.96358 12.8068 4.251 11.504 5.53843 10.2034C5.95991 9.77758 6.33432 9.77976 6.76018 10.2067C7.73123 11.181 8.70008 12.1565 9.67003 13.1308C10.0039 13.4658 10.3411 13.7975 10.7089 14.1621V14.1632ZM17.422 22.1176C16.5308 20.4153 16.325 18.702 17.076 16.9515C17.827 15.2021 19.1878 14.1336 21.0434 13.6267C19.7045 12.3174 18.405 11.0453 17.0673 9.73707C17.0465 9.76444 16.9972 9.85421 16.9271 9.92427C15.0639 11.7974 13.1995 13.6683 11.334 15.5393C10.8852 15.9892 10.49 15.9903 10.0433 15.5436C8.81941 14.3197 7.59438 13.0969 6.37373 11.8696C6.30476 11.7996 6.26426 11.7011 6.21171 11.6157C6.11318 11.6967 6.08143 11.7153 6.05734 11.7405C4.54768 13.2578 3.03693 14.7751 1.53274 16.299C1.46705 16.3658 1.42873 16.4895 1.42873 16.5858C1.42107 17.6149 1.40465 18.6451 1.4353 19.673C1.44625 20.0266 1.52944 20.401 1.67286 20.7251C2.12389 21.7454 3.02817 22.1012 4.04957 22.1067C8.4045 22.1308 12.7594 22.1165 17.1154 22.1165H17.4242L17.422 22.1176ZM22.3024 14.9328C19.9596 14.9328 18.1106 16.8037 18.0898 19.1541C18.0679 21.556 20.1643 23.3525 22.3111 23.3372C24.6539 23.3208 26.5205 21.4739 26.5216 19.1454C26.5237 16.807 24.6451 14.9317 22.3013 14.9317L22.3024 14.9328Z" fill="#FF4F8E"/>
<path id="Vector_2" d="M10.557 9.96039C9.50493 9.96258 8.64664 9.11196 8.63788 8.0588C8.62913 6.99908 9.49509 6.12109 10.5526 6.11781C11.5948 6.11452 12.464 6.97828 12.4739 8.02596C12.4838 9.08677 11.6211 9.9571 10.5581 9.95929L10.557 9.96039Z" fill="#FF4F8E"/>
<path id="Vector_3" d="M23.0263 18.5892C23.0263 19.5176 23.0405 20.4448 23.0153 21.3721C23.0099 21.5779 22.9037 21.8144 22.769 21.9742C22.5884 22.1899 22.307 22.2326 22.041 22.1121C21.7662 21.9873 21.5932 21.7717 21.5922 21.4531C21.59 20.597 21.59 19.7409 21.59 18.8848C21.59 18.7863 21.59 18.6889 21.59 18.5104C21.4301 18.6681 21.3207 18.7819 21.2057 18.8903C20.8904 19.1881 20.412 19.2078 20.1471 18.9363C19.8723 18.6549 19.8854 18.1864 20.1898 17.8787C20.7076 17.3533 21.2298 16.8322 21.7553 16.3132C22.0925 15.9804 22.4767 15.9553 22.8216 16.2826C23.3832 16.8146 23.9284 17.3653 24.4648 17.9236C24.745 18.2159 24.7286 18.6878 24.4648 18.9396C24.19 19.2012 23.7225 19.1903 23.4281 18.9045C23.312 18.7918 23.22 18.656 23.116 18.5301C23.0865 18.5498 23.0558 18.5695 23.0263 18.5903V18.5892Z" fill="#FF4F8E"/>
</g>
</svg>
